<svg aria-hidden="true" style="position: absolute; width: 0; height: 0; overflow: hidden;" version="1.1"
     xmlns="http://www.w3.org/2000/svg" xmlns:xlink="http://www.w3.org/1999/xlink">
    <defs>
        <symbol id="icon-instagram" viewBox="0 0 32 32">
            <path fill="#fc9" style="fill: var(--color1, #fc9)"
                  d="M16 32c8.837 0 16-7.163 16-16s-7.163-16-16-16c-8.837 0-16 7.163-16 16s7.163 16 16 16zM8 12.605c0-2.54 2.066-4.605 4.605-4.605h6.789c2.54 0 4.605 2.066 4.605 4.605v6.851c0 2.539-2.066 4.605-4.605 4.605h-6.789c-2.54 0-4.605-2.066-4.605-4.605v-6.851zM11.836 16.002c0-2.279 1.874-4.132 4.176-4.132s4.177 1.854 4.177 4.132c0 2.278-1.874 4.132-4.177 4.132s-4.176-1.854-4.176-4.132zM13.357 16.002c0 1.439 1.191 2.611 2.655 2.611s2.655-1.171 2.655-2.611c0-1.44-1.191-2.611-2.655-2.611s-2.655 1.171-2.655 2.611zM20.264 12.683c0.543 0 0.983-0.44 0.983-0.983s-0.44-0.983-0.983-0.983c-0.543 0-0.983 0.44-0.983 0.983s0.44 0.983 0.983 0.983z"></path>
        </symbol>
        <symbol id="icon-facebook" viewBox="0 0 32 32">
            <path fill="#fc9" style="fill: var(--color1, #fc9)"
                  d="M16 32c-8.837 0-16-7.163-16-16s7.163-16 16-16c8.837 0 16 7.163 16 16s-7.163 16-16 16zM17.098 8.325c-0.805 0.022-1.655 0.216-2.255 0.786-0.496 0.458-0.745 1.126-0.801 1.793-0.017 0.477-0.015 0.955-0.012 1.434 0.002 0.358 0.004 0.717-0.003 1.075-0.22 0.002-0.441 0.001-0.663 0.001-0.295-0.001-0.59-0.001-0.884 0.003 0 0.286 0 0.571 0.001 0.857 0.001 0.573 0.002 1.147-0.001 1.722 0.294 0.004 0.589 0.004 0.884 0.003 0.221-0.001 0.442-0.001 0.663 0.001 0.005 1.138 0.004 2.276 0.003 3.414-0.001 1.422-0.002 2.845 0.008 4.267 0.605-0.004 1.208-0.004 1.812-0.003 0.453 0 0.906 0.001 1.36-0.001 0.004-1.28 0.003-2.56 0.002-3.839s-0.002-2.559 0.002-3.839c0.305-0.002 0.61-0.001 0.915-0.001 0.407 0.001 0.814 0.001 1.22-0.003 0.127-0.857 0.235-1.722 0.294-2.59-0.402-0.002-0.805-0.002-1.207-0.002s-0.805 0-1.207-0.002c0-0.15-0-0.3-0-0.45-0.001-0.45-0.001-0.9 0.004-1.35 0.063-0.347 0.421-0.611 0.768-0.589h1.647c0.004-0.898 0.004-1.793 0-2.691-0.212 0-0.425-0-0.637-0-0.637-0.001-1.275-0.001-1.912 0.004z"></path>
        </symbol>
        <symbol id="icon-tiktok" viewBox="0 0 32 32">
            <path fill="#fc9" style="fill: var(--color1, #fc9)"
                  d="M32 16c0 8.837-7.163 16-16 16s-16-7.163-16-16c0-8.837 7.163-16 16-16s16 7.163 16 16z"></path>
            <path fill="#300" style="fill: var(--color2, #300)"
                  d="M22.957 11.129c-0.915-0.196-1.744-0.679-2.366-1.379s-1.003-1.58-1.090-2.512v-0.404h-3.158v12.533c-0.002 0.555-0.178 1.095-0.502 1.545s-0.783 0.787-1.309 0.963c-0.526 0.176-1.094 0.183-1.624 0.020s-0.996-0.488-1.332-0.93c-0.341-0.449-0.53-0.995-0.54-1.559s0.16-1.116 0.485-1.577c0.325-0.461 0.789-0.806 1.323-0.985s1.112-0.184 1.65-0.013v-3.208c-1.198-0.166-2.418 0.047-3.489 0.609s-1.94 1.445-2.485 2.525c-0.545 1.080-0.738 2.303-0.554 3.499s0.738 2.303 1.584 3.168c0.806 0.825 1.84 1.391 2.969 1.625s2.303 0.128 3.371-0.308c1.068-0.435 1.982-1.179 2.626-2.136s0.987-2.084 0.987-3.237v-6.404c1.276 0.912 2.806 1.402 4.375 1.399v-3.138c-0.309 0-0.617-0.031-0.919-0.095z"></path>
        </symbol>
        <symbol id="icon-Repair" viewBox="0 0 32 32">
            <path fill="#fc9" style="fill: var(--color1, #fc9)"
                  d="M14.125 15.656h-11.313c-0.276 0-0.5-0.224-0.5-0.5v-4.031c0-0.276 0.224-0.5 0.5-0.5h9.438c0.276 0 0.5 0.224 0.5 0.5v1.375h0.319l3.644-1.822c0.069-0.035 0.146-0.053 0.224-0.053h14.563c0.276 0 0.5 0.224 0.5 0.5v2.156c0 0.276-0.224 0.5-0.5 0.5h-12.591l-4.598 1.839c-0.059 0.024-0.122 0.036-0.186 0.036zM3.313 14.656h10.716l4.598-1.839c0.059-0.024 0.122-0.036 0.186-0.036h12.187v-1.156h-13.944l-3.644 1.822c-0.069 0.035-0.146 0.053-0.224 0.053h-0.938c-0.276 0-0.5-0.224-0.5-0.5v-1.375h-8.438v3.031z"></path>
            <path fill="#fc9" style="fill: var(--color1, #fc9)"
                  d="M15.063 25.969c-0.046 0-0.092-0.006-0.137-0.019-0.159-0.045-0.285-0.166-0.338-0.323-0.601-1.803-2.194-3.111-4.058-3.334-2.362-0.282-4.813-0.078-6.724 0.559l-0.836 0.279c-0.152 0.051-0.32 0.025-0.451-0.069s-0.208-0.245-0.208-0.406v-7.5c0-0.276 0.224-0.5 0.5-0.5s0.5 0.224 0.5 0.5v6.806l0.177-0.059c2.046-0.682 4.655-0.902 7.158-0.603 2.010 0.24 3.757 1.525 4.621 3.345l1.315-1.095c2.534-2.112 5.578-3.594 8.803-4.288l1.703-0.448c0.007-0.002 0.015-0.004 0.023-0.005 2.252-0.483 3.887-2.505 3.887-4.809v-0.719c0-0.276 0.224-0.5 0.5-0.5s0.5 0.224 0.5 0.5v0.719c0 1.35-0.467 2.671-1.316 3.721-0.846 1.046-2.036 1.779-3.351 2.064l-1.703 0.448c-0.007 0.002-0.015 0.004-0.023 0.005-3.072 0.658-5.971 2.069-8.384 4.080l-1.842 1.534c-0.091 0.076-0.204 0.116-0.32 0.116z"></path>
            <path fill="#fc9" style="fill: var(--color1, #fc9)"
                  d="M20.331 22.135c-0.137 0-0.273-0.056-0.372-0.165l-1.55-1.722c-0.185-0.205-0.168-0.521 0.037-0.706s0.521-0.168 0.706 0.037l1.55 1.722c0.185 0.205 0.168 0.521-0.037 0.706-0.096 0.086-0.215 0.128-0.334 0.128z"></path>
            <path fill="#fc9" style="fill: var(--color1, #fc9)"
                  d="M24.709 20.437c-0.137 0-0.273-0.056-0.372-0.165l-1.585-1.761c-0.185-0.205-0.168-0.521 0.037-0.706s0.522-0.168 0.706 0.037l1.585 1.761c0.185 0.205 0.168 0.521-0.037 0.706-0.096 0.086-0.215 0.128-0.334 0.128z"></path>
            <path fill="#fc9" style="fill: var(--color1, #fc9)"
                  d="M22.358 21.2c-0.137 0-0.273-0.056-0.372-0.165l-1.484-1.65c-0.185-0.205-0.168-0.521 0.037-0.706s0.521-0.168 0.706 0.037l1.484 1.65c0.185 0.205 0.168 0.521-0.037 0.706-0.096 0.086-0.215 0.128-0.334 0.128z"></path>
            <path fill="#fc9" style="fill: var(--color1, #fc9)"
                  d="M13.5 29.5h-10c-0.152 0-0.295-0.069-0.39-0.187s-0.131-0.273-0.098-0.421l1.555-6.997c0.060-0.27 0.327-0.44 0.596-0.38s0.44 0.327 0.38 0.597l-1.42 6.389h8.752l-1.397-6.238c-0.060-0.269 0.109-0.537 0.379-0.597s0.537 0.109 0.597 0.379l1.533 6.847c0.033 0.148-0.003 0.303-0.098 0.422s-0.238 0.187-0.39 0.187z"></path>
            <path fill="#fc9" style="fill: var(--color1, #fc9)"
                  d="M16.5 32h-16c-0.276 0-0.5-0.224-0.5-0.5v-0.5c0-1.379 1.121-2.5 2.5-2.5h12c1.379 0 2.5 1.121 2.5 2.5v0.5c0 0.276-0.224 0.5-0.5 0.5zM1 31h15c0-0.827-0.673-1.5-1.5-1.5h-12c-0.827 0-1.5 0.673-1.5 1.5z"></path>
            <path fill="#fc9" style="fill: var(--color1, #fc9)"
                  d="M12.25 9h-4.5c-0.276 0-0.5-0.224-0.5-0.5v-8c0-0.276 0.224-0.5 0.5-0.5h4.5c0.276 0 0.5 0.224 0.5 0.5v8c0 0.276-0.224 0.5-0.5 0.5zM8.25 8h3.5v-7h-3.5v7z"></path>
            <path fill="#fc9" style="fill: var(--color1, #fc9)"
                  d="M27.25 6.188h-15c-0.276 0-0.5-0.224-0.5-0.5s0.224-0.5 0.5-0.5h15c0.414 0 0.75-0.336 0.75-0.75s-0.336-0.75-0.75-0.75h-15c-0.276 0-0.5-0.224-0.5-0.5s0.224-0.5 0.5-0.5h15c0.965 0 1.75 0.785 1.75 1.75s-0.785 1.75-1.75 1.75z"></path>
            <path fill="#fc9" style="fill: var(--color1, #fc9)"
                  d="M12.25 7h-4.5c-0.276 0-0.5-0.224-0.5-0.5s0.224-0.5 0.5-0.5h4.5c0.276 0 0.5 0.224 0.5 0.5s-0.224 0.5-0.5 0.5z"></path>
            <path fill="#fc9" style="fill: var(--color1, #fc9)"
                  d="M12.25 3h-4.5c-0.276 0-0.5-0.224-0.5-0.5s0.224-0.5 0.5-0.5h4.5c0.276 0 0.5 0.224 0.5 0.5s-0.224 0.5-0.5 0.5z"></path>
        </symbol>
        <symbol id="icon-coat" viewBox="0 0 32 32">
            <path fill="#fc9" style="fill: var(--color1, #fc9)"
                  d="M27.749 22.799l-0.684-4.331-1.646-10.39c-0.269-1.912-0.61-2.862-2.376-3.982-0.174-0.11-0.346-0.228-0.528-0.326-0.545-0.294-0.523-0.203-0.994-0.651l-0.699-0.645c-1.896-1.749-4.279-2.472-6.802-1.809-1.153 0.303-2.206 0.986-3.065 1.802-0.012 0.011-0.608 0.577-0.608 0.577-0.481 0.469-0.706 0.556-1.302 0.865-1.078 0.56-2.093 1.537-2.43 2.733-0.171 0.606-0.234 1.257-0.337 1.879l-2.35 14.891c-0.026 0.197-0.051 0.393-0.039 0.593 0.045 0.741 1.408 1.183 1.979 1.29l0.497 0.075c0.325 0.060 0.897 0.062 1.238 0.030l-0.003 0.026c-0.025 0.272-0.014 0.55-0.020 0.823-0.033 1.203-0.082 2.404-0.086 3.607-0.004 1.162-0.191 1.256 1.121 1.528 2.573 0.523 5.244 0.617 7.89 0.552 1.038-0.026 2.072-0.076 3.096-0.135 0.961-0.055 1.922-0.123 2.874-0.277 0.406-0.066 1.593-0.148 1.769-0.638l0.007-0.019c0.030-0.091 0.015-0.205 0.014-0.3l-0.046-3.589c-0.015-0.491-0.028-1.106-0.083-1.574 0.903-0.003 1.816-0.022 2.665-0.37 1.307-0.536 1.153-1.135 0.946-2.237zM20.758 3.751c1.118 1.107 1.516 2.043 0.573 3.46-0.701 1.054-0.778 1.015-0.492 2.175-0.139 0.61-1.372 1.992-1.779 2.491l-1.804 2.241-0.897 1.067c0.002-0.495 0.17-0.968 0.317-1.436l0.468-1.379 1.894-4.96c0.286-0.85 1.151-3.477 0.986-4.361l0.734 0.701zM15.982 12.704l-0.084 0.311c-0.038-0.248-0.155-0.512-0.242-0.748l-0.91-2.251c-0.598-1.521-1.192-3.067-1.619-4.646l-0.324-1.386c0.284-0.079 0.557-0.199 0.841-0.281 0.617-0.179 1.242-0.263 1.88-0.314 1.218-0.017 2.31 0.102 3.458 0.577-0.017 0.14-0.064 0.285-0.095 0.424l-0.357 1.351c-0.419 1.425-0.926 2.823-1.474 4.203-0.363 0.916-0.776 1.819-1.074 2.759zM14.135 1.664c0.506-0.135 1.021-0.194 1.542-0.225 0.066-0.004 0.131-0.007 0.197-0.009 1.008-0.029 2.024 0.169 2.884 0.719 0.436 0.278 0.261 0.172 0.295 0.794-0.805-0.389-2.314-0.543-3.182-0.548-0.052-0.022-0.226-0.002-0.29-0.002-0.985 0.009-1.932 0.233-2.874 0.499 0.012-0.206-0.008-0.382-0.076-0.577-0.051-0.144 1.363-0.615 1.505-0.653zM11.073 3.694l0.669-0.664c-0.053 1.31 0.516 2.983 0.926 4.216l2.014 5.267 0.444 1.336c0.152 0.494 0.259 0.819 0.296 1.334-0.089-0.159-0.258-0.307-0.38-0.444l-0.531-0.621-2.975-3.735c-0.201-0.268-0.421-0.555-0.551-0.866-0.080-0.191-0.034-0.257 0.029-0.446 0.604-1.814-2.854-2.525 0.059-5.379zM26.882 23.83c-0.598 0.601-2.004 0.606-2.807 0.606-0.231-2.659-0.334-5.314-0.34-7.983-0-0.136 0.009-0.287-0.023-0.419l-0.006-0.023c-0.056-0.221-0.194-0.419-0.445-0.411-0.52 0.016-0.516 0.466-0.517 0.841 0.006 4.647 0.531 9.268 0.541 13.914-0.254 0.148-1.766 0.295-2.1 0.325-4.021 0.363-8.353 0.644-12.322-0.235-0.090-0.020-0.375-0.031-0.375-0.13l0.040-3.115c0.004-0.114 0.025-0.226 0.029-0.34 0.109-2.458 0.29-4.914 0.458-7.369l0.008-3.091c0.005-0.332 0.039-0.703-0.398-0.778-0.253-0.044-0.539 0.185-0.586 0.429-0.027 0.136-0.004 0.312-0.003 0.453-0.007 2.654-0.165 5.286-0.349 7.934-0.88-0.004-2.117 0.004-2.811-0.613l0.030-0.319 2.319-14.674c0.274-1.703 0.237-2.585 1.732-3.73-0.16 1.104 0.102 1.928 0.751 2.841 0.217 0.306 0.389 0.403 0.337 0.79-0.142 1.063 0.107 1.471 0.719 2.288l3.682 4.526 0.62 0.679c0.448 0.471 0.324 0.235 0.325 0.913l0.005 11.292c0.004 0.081 0.002 0.189 0.058 0.251l0.013 0.014c0.341 0.393 0.892 0.207 0.899-0.392l0.001-11.529c0.001-0.295 0.084-0.285 0.277-0.479l1.708-1.913 2.874-3.646c0.429-0.615 0.625-0.993 0.535-1.743l-0.050-0.348c-0.018-0.136-0.026-0.162 0.052-0.276l0.24-0.333c0.698-0.966 0.967-1.825 0.777-2.999l0.344 0.276c1.011 0.863 1.181 1.827 1.355 3.055l2.234 14.208c0.073 0.412 0.156 0.816 0.19 1.234l-0.019 0.020z"></path>
            <path fill="#fc9" style="fill: var(--color1, #fc9)"
                  d="M12.641 23.106c-0.112-0.025-0.258-0.009-0.373-0.008l-0.739 0.004-0.688 0.001c-0.132 0-0.289-0.014-0.414 0.031l-0.027 0.010c-0.448 0.161-0.466 0.75 0.003 0.913 0.128 0.044 0.286 0.029 0.42 0.028l0.692-0.004 0.742 0.001c0.118-0 0.254 0.014 0.369-0.010 0.507-0.109 0.543-0.846 0.015-0.965z"></path>
            <path fill="#fc9" style="fill: var(--color1, #fc9)"
                  d="M20.795 23.106c-0.111-0.025-0.258-0.009-0.373-0.008l-0.739 0.004-0.688 0.001c-0.132 0-0.288-0.014-0.414 0.031l-0.027 0.010c-0.449 0.161-0.466 0.75 0.003 0.913 0.128 0.044 0.286 0.029 0.42 0.028l0.691-0.004 0.742 0.001c0.118-0 0.254 0.014 0.369-0.010 0.507-0.109 0.543-0.846 0.015-0.965z"></path>
            <path fill="#fc9" style="fill: var(--color1, #fc9)"
                  d="M17.164 17.255c-0.203 0-0.367 0.165-0.367 0.368s0.164 0.367 0.367 0.367 0.367-0.164 0.367-0.367c0-0.203-0.165-0.368-0.367-0.368z"></path>
            <path fill="#fc9" style="fill: var(--color1, #fc9)"
                  d="M17.164 19.37c-0.203 0-0.367 0.165-0.367 0.367s0.164 0.368 0.367 0.368 0.367-0.165 0.367-0.368c0-0.203-0.165-0.367-0.367-0.367z"></path>
            <path fill="#fc9" style="fill: var(--color1, #fc9)"
                  d="M17.164 21.629c-0.203 0-0.367 0.165-0.367 0.367s0.164 0.367 0.367 0.367c0.203 0 0.367-0.164 0.367-0.367s-0.165-0.367-0.367-0.367z"></path>
            <path fill="#fc9" style="fill: var(--color1, #fc9)"
                  d="M17.164 23.887c-0.203 0-0.367 0.164-0.367 0.367s0.164 0.367 0.367 0.367 0.367-0.164 0.367-0.367c0-0.203-0.165-0.367-0.367-0.367z"></path>
            <path fill="#fc9" style="fill: var(--color1, #fc9)"
                  d="M17.164 26.451c-0.203 0-0.367 0.165-0.367 0.367s0.164 0.367 0.367 0.367 0.367-0.165 0.367-0.367c0-0.203-0.165-0.367-0.367-0.367z"></path>
        </symbol>
        <symbol id="icon-shoe" viewBox="0 0 32 32">
            <path fill="#fc9" style="fill: var(--color1, #fc9)"
                  d="M31.475 22.023h-0.343v-0.868c0-1.259-1.033-2.302-2.305-2.322-1.878-0.023-5.562-0.441-9.119-2.965-2.604-1.848-4.711-4.497-6.282-7.892 0-0.003-0.003-0.007-0.003-0.010-0.377-0.811-0.72-1.663-1.036-2.558-0.071-0.202-0.262-0.337-0.478-0.337h-9.21c-0.279 0-0.505 0.225-0.505 0.505v5.567c0 0.677-0.084 1.35-0.246 1.999-0.165 0.653-0.41 1.286-0.73 1.878-0.528 0.979-0.808 2.090-0.808 3.211v1.356c0 0.454 0.047 0.912 0.138 1.36 0.030 0.151 0.067 0.3 0.108 0.448 0.088 0.313 0.198 0.619 0.326 0.916h-0.491c-0.279 0-0.505 0.225-0.505 0.505v2.255c0 0.279 0.225 0.505 0.505 0.505h8.614c0.279 0 0.505-0.226 0.505-0.505v-0.414c1.477 0.505 5 1.632 7.123 1.632h7.665c1.992 0 3.944-0.367 5.808-1.087l1.454-0.565c0.195-0.074 0.323-0.263 0.323-0.471v-1.632c0-0.135-0.054-0.263-0.148-0.357-0.098-0.101-0.226-0.151-0.36-0.151zM19.92 17.566v-0.343c3.523 2.211 7.036 2.595 8.89 2.618 0.734 0.013 1.312 0.589 1.312 1.313v0.989l-2.689 0.75c-1.255 0.35-2.551 0.528-3.846 0.528h-7.605c-0.633 0-2.103-0.259-4.142-0.73-1.114-0.256-2.265-0.387-3.419-0.387h-0.246c0.225-1.787 1.756-3.17 3.6-3.17h6.575c0.865 0 1.568-0.703 1.568-1.568zM11.552 6.076c0.198 0.545 0.407 1.070 0.629 1.585h-8.977v-1.585h8.348zM2.107 15.493c0.357-0.666 0.633-1.373 0.818-2.107 0.185-0.73 0.279-1.488 0.279-2.248v-2.467h9.435c1.592 3.335 3.691 5.974 6.272 7.865v1.030c0 0.31-0.249 0.559-0.559 0.559h-6.575c-2.402 0-4.384 1.838-4.617 4.18h-0.596c-0.219-2.474-2.295-4.419-4.825-4.419-0.104 0-0.205 0.007-0.31 0.013 0.047-0.841 0.279-1.666 0.676-2.406zM2.1 22.305c-0.199-0.373-0.36-0.771-0.474-1.184-0.138-0.505-0.209-1.023-0.209-1.538v-0.673c0.108-0.010 0.212-0.013 0.32-0.013 1.972 0 3.6 1.494 3.812 3.409h-3.449zM30.97 23.813l-1.131 0.441c-1.743 0.677-3.574 1.020-5.441 1.020h-7.665c-2.5 0-7.406-1.79-7.453-1.811-0.155-0.057-0.326-0.034-0.464 0.061-0.135 0.094-0.215 0.249-0.215 0.414v0.623h-7.605v-1.245h0.804c0.003 0 0.003 0 0.007 0h6.615c1.077 0 2.15 0.121 3.19 0.36 1.494 0.347 3.466 0.757 4.371 0.757h7.605c1.386 0 2.773-0.192 4.115-0.569l2.995-0.835h0.273v0.784z"></path>
        </symbol>
        <symbol id="icon-soles" viewBox="0 0 32 32">
            <path fill="#fc9" style="fill: var(--color1, #fc9)"
                  d="M30.836 7.326c-0.057-0.035-0.116-0.067-0.177-0.096s-0.123-0.053-0.187-0.073c-0.064-0.021-0.129-0.037-0.195-0.050s-0.132-0.021-0.199-0.026c-0.067-0.004-0.134-0.005-0.201-0.001s-0.134 0.012-0.2 0.023-0.131 0.028-0.195 0.048c-0.064 0.020-0.127 0.044-0.188 0.071-1.148 0.589-2.257 1.241-3.329 1.958s-2.099 1.493-3.082 2.328c0.406-1.443 2.221-4.214 3.902-5.564 0.064-0.014 0.126-0.033 0.186-0.058s0.119-0.054 0.174-0.089 0.108-0.073 0.157-0.117c0.049-0.043 0.094-0.090 0.135-0.141s0.077-0.105 0.109-0.162c0.032-0.057 0.059-0.117 0.081-0.178s0.038-0.125 0.049-0.189c0.011-0.064 0.017-0.129 0.017-0.195v-1.108c0-0.038-0.002-0.076-0.006-0.113s-0.009-0.075-0.017-0.112c-0.007-0.037-0.017-0.074-0.028-0.11s-0.024-0.072-0.038-0.107c-0.014-0.035-0.031-0.069-0.049-0.103s-0.037-0.066-0.058-0.097c-0.021-0.031-0.044-0.062-0.068-0.091s-0.050-0.057-0.076-0.084c-0.027-0.027-0.055-0.052-0.084-0.076s-0.059-0.047-0.091-0.068-0.064-0.040-0.097-0.058c-0.033-0.018-0.068-0.034-0.103-0.048s-0.070-0.027-0.107-0.038c-0.036-0.011-0.073-0.020-0.11-0.028s-0.074-0.013-0.112-0.017c-0.038-0.004-0.075-0.006-0.114-0.006h-2.857c0.005-0.021 0.008-0.043 0.011-0.065s0.004-0.043 0.004-0.065-0.001-0.044-0.004-0.065c-0.002-0.022-0.006-0.043-0.011-0.065s-0.011-0.042-0.018-0.063c-0.007-0.021-0.015-0.041-0.025-0.061s-0.019-0.039-0.031-0.058c-0.011-0.019-0.024-0.037-0.037-0.054s-0.027-0.034-0.043-0.050-0.031-0.031-0.048-0.045c-0.017-0.014-0.034-0.027-0.052-0.039s-0.037-0.023-0.056-0.033c-0.019-0.010-0.039-0.019-0.060-0.027s-0.041-0.015-0.062-0.020c-0.021-0.006-0.042-0.010-0.064-0.013s-0.043-0.005-0.065-0.006h-3.759c-0.022 0.001-0.044 0.003-0.065 0.006s-0.043 0.008-0.064 0.013c-0.021 0.006-0.042 0.012-0.062 0.020s-0.040 0.017-0.060 0.027c-0.019 0.010-0.038 0.021-0.056 0.033s-0.036 0.025-0.053 0.039c-0.017 0.014-0.033 0.029-0.048 0.045s-0.029 0.032-0.043 0.050c-0.013 0.017-0.026 0.035-0.037 0.054s-0.022 0.038-0.031 0.058c-0.009 0.020-0.017 0.040-0.024 0.061s-0.013 0.042-0.018 0.063c-0.005 0.021-0.008 0.043-0.010 0.065s-0.004 0.044-0.004 0.065c0 0.022 0.001 0.044 0.004 0.065s0.006 0.043 0.011 0.065h-2.853c-0.038 0-0.076 0.002-0.113 0.006s-0.075 0.009-0.112 0.017c-0.037 0.007-0.074 0.017-0.11 0.028s-0.072 0.024-0.107 0.038c-0.035 0.014-0.069 0.031-0.103 0.048s-0.066 0.037-0.097 0.058c-0.031 0.021-0.062 0.044-0.091 0.068s-0.057 0.049-0.084 0.076c-0.027 0.027-0.052 0.055-0.076 0.084s-0.046 0.060-0.068 0.091c-0.021 0.031-0.040 0.064-0.058 0.097s-0.034 0.068-0.048 0.102c-0.014 0.035-0.027 0.071-0.038 0.107s-0.020 0.073-0.028 0.11c-0.007 0.037-0.013 0.075-0.017 0.112s-0.006 0.075-0.006 0.113v1.108c0 0.038 0.002 0.076 0.006 0.113s0.009 0.075 0.017 0.112c0.007 0.037 0.017 0.074 0.028 0.11s0.024 0.072 0.038 0.107c0.014 0.035 0.031 0.069 0.049 0.102s0.037 0.066 0.058 0.097c0.021 0.031 0.044 0.062 0.068 0.091s0.049 0.057 0.076 0.084c0.027 0.027 0.055 0.052 0.084 0.076s0.060 0.047 0.091 0.068c0.031 0.021 0.064 0.041 0.097 0.058s0.068 0.034 0.102 0.049c0.035 0.014 0.071 0.027 0.107 0.038s0.073 0.020 0.11 0.028c0.037 0.007 0.075 0.013 0.112 0.017s0.075 0.006 0.113 0.006h2.853v0.171c0 0.037 0.004 0.073 0.011 0.109s0.018 0.071 0.032 0.105 0.031 0.066 0.052 0.097c0.020 0.031 0.044 0.059 0.070 0.085s0.054 0.049 0.085 0.070c0.030 0.020 0.063 0.038 0.097 0.052s0.069 0.025 0.105 0.032c0.036 0.007 0.073 0.011 0.109 0.011h2.951c-2.25 2.811-2.8 5.356-3.132 8.4-1.27 1.413-2.455 3.168-3.67 4.608-1.119 1.354-3.743 2.516-6.108 1.165-0.025-0.013-0.050-0.025-0.077-0.035s-0.054-0.017-0.081-0.023c-0.028-0.006-0.056-0.009-0.084-0.010s-0.056-0.001-0.085 0.002c-0.028 0.003-0.056 0.008-0.083 0.015s-0.054 0.016-0.080 0.027c-0.026 0.011-0.051 0.024-0.075 0.039s-0.047 0.032-0.068 0.050c-1.023 0.872-2.124 1.63-3.303 2.276-1.257 0.687-2.573 1.229-3.949 1.628-0.053 0.016-0.105 0.035-0.156 0.055s-0.102 0.042-0.152 0.067c-0.050 0.024-0.098 0.050-0.146 0.078s-0.094 0.058-0.139 0.089c-0.045 0.032-0.089 0.064-0.132 0.099s-0.084 0.071-0.124 0.109c-0.040 0.038-0.078 0.078-0.115 0.119s-0.072 0.083-0.106 0.127c-0.034 0.044-0.066 0.089-0.096 0.135s-0.059 0.094-0.085 0.142c-0.027 0.049-0.051 0.098-0.074 0.148s-0.044 0.101-0.062 0.153-0.036 0.104-0.050 0.158c-0.015 0.053-0.027 0.107-0.038 0.161s-0.019 0.109-0.026 0.163c-0.006 0.055-0.011 0.11-0.013 0.165 0.046 1.947 2.803 3.356 4.638 3.356h9.301c0.045 0.001 0.093 0.002 0.144 0.002 0.123-0.001 0.247-0.006 0.37-0.016s0.246-0.024 0.368-0.043c0.122-0.019 0.243-0.042 0.364-0.070s0.239-0.060 0.358-0.096c0.118-0.036 0.234-0.077 0.35-0.122s0.228-0.094 0.34-0.147c0.111-0.053 0.221-0.11 0.328-0.172s0.212-0.126 0.315-0.195c0.102-0.069 0.202-0.141 0.299-0.218s0.192-0.156 0.283-0.239c0.091-0.083 0.18-0.169 0.265-0.259s0.167-0.182 0.245-0.277c0.078-0.096 0.153-0.194 0.224-0.295s0.139-0.204 0.202-0.31c0.064-0.106 0.123-0.214 0.179-0.324s0.107-0.222 0.155-0.337c0.72-2.256 1.673-4.409 2.859-6.458 0.401-0.705 0.856-1.389 1.297-2.070 0.008-0.019 0.018-0.036 0.029-0.053s0.024-0.032 0.038-0.047c0.014-0.015 0.029-0.028 0.045-0.040s0.033-0.023 0.052-0.032 0.037-0.017 0.056-0.022c0.019-0.006 0.039-0.010 0.059-0.013s0.040-0.003 0.060-0.002c0.020 0.001 0.040 0.004 0.060 0.008s0.039 0.010 0.058 0.018c0.019 0.008 0.037 0.017 0.054 0.028s0.033 0.023 0.048 0.036c0.015 0.014 0.029 0.028 0.041 0.044s0.024 0.033 0.034 0.051 0.018 0.036 0.024 0.055c0.007 0.019 0.011 0.039 0.015 0.059s0.005 0.040 0.004 0.060v10.936c0 0.037 0.004 0.073 0.011 0.109s0.018 0.071 0.032 0.105 0.031 0.066 0.052 0.097c0.020 0.031 0.044 0.059 0.070 0.085s0.054 0.049 0.085 0.070c0.030 0.020 0.063 0.038 0.097 0.052s0.069 0.025 0.105 0.032c0.036 0.007 0.073 0.011 0.109 0.011h2.605c0.037 0 0.073-0.004 0.109-0.011s0.071-0.018 0.105-0.032c0.034-0.014 0.066-0.031 0.097-0.052s0.059-0.044 0.085-0.070c0.026-0.026 0.049-0.054 0.070-0.085s0.038-0.063 0.052-0.097c0.014-0.034 0.025-0.069 0.032-0.105s0.011-0.073 0.011-0.109c0.063-3.826-0.386-9.491 1.010-13.088 0.512-1.527 1.197-2.971 2.057-4.333 0.683-1.441 1.654-3.989 0.482-4.861zM26.573 3.709l-0.036 1.143h-2.857v-1.172l2.893 0.029zM15.912 4.817l0.035-1.143h2.853v1.172l-2.888-0.030zM19.921 2.946h2.638c-0 0.11 0 0.636 0 0.758h-1.319c-0.037 0-0.073 0.004-0.108 0.012s-0.070 0.018-0.104 0.033c-0.034 0.014-0.066 0.032-0.096 0.052s-0.058 0.044-0.084 0.070c-0.026 0.026-0.049 0.054-0.069 0.085s-0.037 0.062-0.051 0.096c-0.014 0.034-0.024 0.069-0.031 0.104s-0.011 0.072-0.011 0.108 0.004 0.073 0.011 0.108c0.007 0.036 0.017 0.071 0.031 0.104s0.031 0.066 0.051 0.096c0.020 0.030 0.043 0.059 0.069 0.085s0.053 0.049 0.084 0.070c0.030 0.021 0.062 0.038 0.096 0.052s0.068 0.025 0.104 0.033 0.072 0.012 0.108 0.012h1.319c-0.003 0.009 0.002 0.585 0 0.593v0.165h-2.638v-2.638zM22.515 8.284c0.589-0.866 1.285-1.636 2.086-2.311h0.517c-0.237 0.237-0.465 0.481-0.685 0.734s-0.43 0.513-0.631 0.781c-0.201 0.268-0.393 0.542-0.575 0.823s-0.353 0.569-0.515 0.862c-0.161 0.294-0.312 0.592-0.452 0.896s-0.269 0.613-0.388 0.926c-0.118 0.313-0.225 0.63-0.321 0.951s-0.18 0.645-0.253 0.972c-0.275 0.26-0.551 0.528-0.827 0.806 0.092-0.55 0.214-1.094 0.366-1.631 0.169-0.678 0.394-1.337 0.676-1.977s0.616-1.25 1.002-1.833zM16.292 28.373c-0.171 0.116-0.35 0.218-0.536 0.305s-0.379 0.16-0.578 0.217c-0.198 0.057-0.4 0.099-0.605 0.124s-0.41 0.035-0.617 0.028h-9.319c-0.213-0.011-0.424-0.036-0.633-0.075s-0.415-0.092-0.618-0.159c-0.202-0.067-0.399-0.148-0.591-0.241s-0.376-0.2-0.553-0.318c2.306-0.117 11.219 0.352 13.163-0.441 0.754-0.226 1.475-0.532 2.161-0.917-0.147 0.296-0.329 0.569-0.545 0.819s-0.46 0.469-0.732 0.657zM21.889 18.004c-0.755 1.113-1.441 2.268-2.057 3.463s-1.159 2.424-1.627 3.685c-0.206 0.158-0.418 0.307-0.636 0.448s-0.441 0.272-0.67 0.395c-0.229 0.123-0.462 0.236-0.7 0.339s-0.48 0.198-0.725 0.282c-0.246 0.084-0.494 0.158-0.746 0.222s-0.505 0.118-0.761 0.161c-0.256 0.043-0.513 0.076-0.772 0.099s-0.518 0.035-0.777 0.036h-11.218c-0.011-0.030-0.020-0.061-0.028-0.092s-0.014-0.062-0.018-0.094c-0.004-0.032-0.007-0.064-0.008-0.096s-0.001-0.064 0.001-0.096 0.006-0.064 0.011-0.095c0.005-0.032 0.012-0.063 0.021-0.093s0.019-0.061 0.030-0.091c0.012-0.030 0.025-0.059 0.040-0.087s0.031-0.056 0.048-0.083 0.037-0.052 0.057-0.077c0.020-0.025 0.042-0.049 0.064-0.071s0.046-0.044 0.071-0.064c0.025-0.020 0.051-0.039 0.077-0.056s0.054-0.034 0.083-0.048c0.028-0.015 0.058-0.028 0.087-0.039s0.060-0.022 0.091-0.030c0.673-0.195 1.334-0.423 1.984-0.685s1.284-0.556 1.904-0.883c0.62-0.326 1.221-0.683 1.805-1.071s1.146-0.803 1.687-1.248c2.918 1.46 5.985-0.16 7.153-1.594 0.682-0.826 1.392-1.734 2.057-2.626 0.758-0.988 1.567-1.932 2.427-2.834s1.766-1.753 2.717-2.557c0.951-0.804 1.943-1.554 2.976-2.251s2.099-1.337 3.2-1.919c0.279-0.075 0.406-0.046 0.429-0.029 0.029 0.029 0.047 0.063 0.057 0.103-0.045-0.010-0.090-0.014-0.136-0.012s-0.091 0.009-0.135 0.022c-0.044 0.013-0.086 0.031-0.125 0.054s-0.075 0.051-0.108 0.084c-1.284 1.309-2.48 2.694-3.589 4.155s-2.121 2.985-3.037 4.574c-0.063 0.005-0.125 0.014-0.187 0.027s-0.122 0.030-0.182 0.050c-0.059 0.021-0.118 0.045-0.174 0.073s-0.111 0.059-0.163 0.094c-0.052 0.035-0.103 0.073-0.15 0.114s-0.092 0.085-0.135 0.132c-0.042 0.047-0.081 0.096-0.117 0.148s-0.068 0.105-0.097 0.161zM27.234 16.166c-1.404 3.637-1.030 9.026-1.067 12.882h-1.484v-10.376c0.001-0.105-0.009-0.209-0.030-0.312s-0.053-0.202-0.096-0.298c-0.043-0.096-0.095-0.186-0.158-0.271s-0.133-0.161-0.212-0.231c0.826-1.42 1.734-2.786 2.722-4.099s2.051-2.562 3.188-3.748c-0.536 2.078-2.284 4.279-2.861 6.452z"></path>
            <path fill="#fc9" style="fill: var(--color1, #fc9)"
                  d="M4.322 7.334c1.5 0.387 1.543 0.438 1.889 2.444-0.002 0.039-0 0.078 0.005 0.117s0.015 0.077 0.028 0.114c0.013 0.037 0.030 0.072 0.050 0.106s0.044 0.065 0.070 0.094c0.027 0.029 0.056 0.055 0.087 0.079s0.065 0.043 0.101 0.060c0.035 0.017 0.072 0.029 0.11 0.039s0.077 0.015 0.116 0.016c0.020-0 0.041-0.002 0.061-0.005s0.040-0.006 0.060-0.011c0.020-0.005 0.039-0.010 0.059-0.017s0.038-0.014 0.057-0.023c0.018-0.008 0.036-0.018 0.054-0.028s0.034-0.021 0.051-0.033c0.016-0.012 0.032-0.025 0.047-0.038s0.030-0.028 0.043-0.043c0.014-0.015 0.027-0.031 0.039-0.047s0.023-0.033 0.034-0.051c0.010-0.017 0.020-0.036 0.029-0.054s0.016-0.037 0.023-0.056c0.007-0.019 0.013-0.039 0.017-0.058s0.008-0.040 0.011-0.060c0.003-0.020 0.004-0.040 0.005-0.061s0-0.041-0.001-0.061c0.016-0.324 0.072-0.641 0.167-0.951s0.228-0.603 0.398-0.88c0.193-0.16 0.403-0.29 0.632-0.392s0.467-0.17 0.715-0.206c0.031-0.007 0.061-0.016 0.090-0.028s0.058-0.026 0.085-0.043c0.027-0.017 0.052-0.035 0.076-0.056s0.046-0.044 0.066-0.068c0.020-0.025 0.038-0.051 0.053-0.078s0.029-0.056 0.039-0.086c0.011-0.030 0.019-0.060 0.025-0.091s0.008-0.063 0.009-0.094c0-0.032-0.002-0.063-0.007-0.094s-0.013-0.062-0.023-0.092c-0.010-0.030-0.023-0.059-0.038-0.087s-0.032-0.054-0.052-0.079c-0.020-0.025-0.041-0.048-0.065-0.069s-0.049-0.040-0.075-0.057c-0.027-0.017-0.055-0.032-0.084-0.044s-0.059-0.022-0.090-0.029c-1.694-0.48-1.604-0.801-1.955-2.575-0.007-0.031-0.017-0.061-0.029-0.090s-0.027-0.057-0.044-0.083c-0.017-0.027-0.036-0.052-0.057-0.075s-0.044-0.045-0.069-0.064c-0.025-0.020-0.051-0.037-0.079-0.052s-0.057-0.028-0.086-0.038c-0.030-0.010-0.061-0.018-0.092-0.023s-0.063-0.008-0.094-0.007c-0.032 0-0.063 0.003-0.094 0.008s-0.062 0.013-0.091 0.024-0.058 0.024-0.086 0.039c-0.027 0.015-0.054 0.033-0.078 0.053s-0.047 0.042-0.068 0.065c-0.021 0.024-0.040 0.049-0.056 0.076s-0.031 0.055-0.043 0.084c-0.012 0.029-0.021 0.059-0.028 0.090-0.146 0.682-0.354 1.344-0.624 1.987-0.199 0.139-0.41 0.258-0.633 0.356s-0.453 0.173-0.69 0.225c-0.032 0.007-0.062 0.016-0.092 0.028s-0.059 0.027-0.086 0.044c-0.027 0.017-0.053 0.036-0.077 0.058s-0.046 0.045-0.066 0.070-0.038 0.052-0.053 0.081c-0.015 0.028-0.028 0.058-0.038 0.088s-0.018 0.062-0.022 0.094c-0.005 0.032-0.007 0.064-0.006 0.096s0.004 0.065 0.011 0.097 0.016 0.063 0.027 0.094c0.012 0.030 0.026 0.059 0.043 0.087s0.036 0.054 0.057 0.079c0.021 0.025 0.045 0.047 0.070 0.068s0.052 0.039 0.080 0.055 0.058 0.029 0.089 0.040c0.031 0.011 0.062 0.019 0.094 0.025zM6.43 6.421c0.142-0.177 0.25-0.373 0.323-0.588 0.043 0.099 0.094 0.194 0.153 0.284s0.126 0.175 0.2 0.253c0.074 0.079 0.154 0.15 0.24 0.215s0.178 0.122 0.274 0.17c-0.175 0.101-0.333 0.225-0.472 0.371s-0.257 0.309-0.351 0.488c-0.092-0.181-0.207-0.345-0.346-0.492s-0.297-0.272-0.472-0.373c0.163-0.092 0.314-0.201 0.452-0.328z"></path>
            <path fill="#fc9" style="fill: var(--color1, #fc9)"
                  d="M9.072 12.417c-0.236 0.060-0.475 0.096-0.718 0.109s-0.485 0.002-0.726-0.033c-0.032-0.004-0.064-0.005-0.096-0.004s-0.064 0.006-0.095 0.012c-0.031 0.007-0.062 0.017-0.092 0.029s-0.058 0.027-0.085 0.044c-0.027 0.017-0.053 0.036-0.077 0.057s-0.046 0.045-0.066 0.070c-0.020 0.025-0.038 0.052-0.053 0.080s-0.029 0.057-0.039 0.088c-0.011 0.030-0.018 0.061-0.023 0.093s-0.008 0.064-0.007 0.096c0 0.032 0.003 0.064 0.009 0.096s0.014 0.063 0.025 0.093c0.011 0.030 0.025 0.059 0.041 0.087s0.034 0.054 0.055 0.079c0.021 0.025 0.043 0.048 0.067 0.068s0.050 0.040 0.078 0.056c1.266 0.89 1.29 0.953 0.906 2.952-0.010 0.022-0.018 0.044-0.025 0.067s-0.013 0.046-0.017 0.070c-0.004 0.024-0.007 0.047-0.008 0.071s-0.001 0.048 0 0.072c0.002 0.024 0.005 0.048 0.009 0.071s0.011 0.047 0.018 0.070c0.007 0.023 0.016 0.045 0.026 0.067s0.021 0.043 0.034 0.063c0.013 0.020 0.027 0.040 0.042 0.059s0.031 0.036 0.048 0.053c0.017 0.017 0.036 0.032 0.055 0.047s0.039 0.028 0.060 0.039c0.021 0.012 0.042 0.023 0.064 0.032s0.045 0.017 0.068 0.024c0.023 0.007 0.046 0.012 0.070 0.015s0.048 0.006 0.071 0.006c0.032-0.001 0.064-0.005 0.095-0.011s0.062-0.015 0.092-0.026c0.030-0.011 0.059-0.024 0.087-0.039s0.055-0.033 0.080-0.052 0.049-0.040 0.072-0.063c0.022-0.023 0.043-0.047 0.061-0.073s0.035-0.053 0.050-0.082c0.014-0.028 0.027-0.058 0.037-0.088 0.129-0.298 0.293-0.575 0.492-0.832s0.427-0.484 0.683-0.683c0.236-0.082 0.48-0.129 0.729-0.144s0.497 0.006 0.741 0.060c0.031 0.004 0.063 0.006 0.094 0.005s0.063-0.004 0.094-0.010c0.031-0.006 0.061-0.015 0.091-0.026s0.058-0.025 0.085-0.041c0.027-0.016 0.053-0.034 0.077-0.054s0.047-0.042 0.067-0.066c0.021-0.024 0.039-0.050 0.055-0.077s0.030-0.055 0.041-0.085 0.020-0.060 0.027-0.091c0.006-0.031 0.010-0.062 0.011-0.094s-0.001-0.063-0.005-0.094c-0.004-0.031-0.011-0.062-0.021-0.092s-0.021-0.059-0.036-0.087-0.031-0.055-0.050-0.080c-0.019-0.025-0.040-0.049-0.063-0.071s-0.047-0.041-0.073-0.059c-0.207-0.137-0.399-0.294-0.575-0.47s-0.333-0.367-0.47-0.575c-0.152-0.234-0.057-1.232 0.125-2.055 0.004-0.031 0.005-0.063 0.004-0.094s-0.005-0.063-0.012-0.093c-0.007-0.031-0.016-0.061-0.027-0.090s-0.026-0.057-0.042-0.084c-0.016-0.027-0.035-0.052-0.056-0.076s-0.043-0.046-0.067-0.066c-0.024-0.020-0.050-0.038-0.077-0.054s-0.056-0.029-0.085-0.040c-0.030-0.011-0.060-0.019-0.091-0.025s-0.062-0.009-0.094-0.010c-0.031-0.001-0.063 0.001-0.094 0.006s-0.062 0.012-0.092 0.022c-0.030 0.010-0.059 0.022-0.087 0.036s-0.054 0.031-0.079 0.051c-0.025 0.019-0.048 0.040-0.070 0.063s-0.041 0.048-0.058 0.074c-0.377 0.586-0.806 1.133-1.285 1.639zM10.074 12.992c0.005 0.108 0.020 0.214 0.043 0.319s0.056 0.208 0.098 0.307c0.041 0.1 0.091 0.195 0.149 0.286s0.123 0.177 0.196 0.256c-0.199 0.033-0.39 0.093-0.573 0.181s-0.349 0.198-0.5 0.333c-0.022-0.202-0.072-0.396-0.15-0.583s-0.182-0.359-0.31-0.516c0.103-0.008 0.204-0.027 0.304-0.057s0.194-0.070 0.284-0.12c0.090-0.050 0.174-0.11 0.252-0.179s0.147-0.145 0.208-0.228z"></path>
        </symbol>
        <symbol id="icon-bag" viewBox="0 0 30 32">
            <path fill="#fc9" style="fill: var(--color1, #fc9)"
                  d="M15.142 0c-4.063 0-7.356 3.477-7.356 7.757v2.399h-6.615c-0.17 0.011-0.32 0.085-0.44 0.211-0.11 0.127-0.17 0.306-0.16 0.486l1.061 16.148c0.19 2.811 2.412 4.999 5.094 4.999h16.854c2.682 0 4.884-2.177 5.094-4.999l1.061-16.159c0.010-0.18-0.050-0.359-0.16-0.497-0.11-0.127-0.28-0.201-0.44-0.211h-6.615v-2.378c-0.030-4.28-3.323-7.757-7.376-7.757zM8.987 7.757c0-3.593 2.752-6.489 6.145-6.489s6.155 2.906 6.155 6.489v2.399h-0.881c-0.3 0.011-0.541 0.243-0.59 0.55-0.401 2.367-2.402 4.174-4.684 4.174-2.272 0-4.283-1.797-4.684-4.174-0.050-0.306-0.3-0.528-0.591-0.528h-0.881l0.010-2.42zM27.452 26.906c-0.14 2.156-1.842 3.826-3.893 3.826h-16.834c-2.042 0-3.743-1.67-3.893-3.826l-1.011-15.482h7.576c0.3 1.247 0.961 2.357 1.901 3.181 2.212 2.029 5.505 2.029 7.706 0 0.921-0.824 1.601-1.945 1.901-3.181h7.576l-1.031 15.482z"></path>
        </symbol>
        <symbol id="icon-cleaning" viewBox="0 0 32 32">
            <path fill="#fc9" style="fill: var(--color1, #fc9)"
                  d="M5.447 9.019c1.241-0.348 2.658-0.918 3.467-1.819 0.787-0.877 1.282-2.43 1.584-3.819 0.316 1.426 0.812 3.016 1.552 3.822 0.781 0.851 2.297 1.433 3.593 1.799-1.275 0.343-2.767 0.922-3.599 1.863-0.777 0.88-1.27 2.428-1.574 3.813-0.307-1.374-0.796-2.911-1.546-3.804-0.787-0.938-2.219-1.513-3.477-1.856zM10.479 18.058c0.001 0 0.002 0 0.002 0 0.233-0.002 0.428-0.19 0.447-0.436 0.004-0.045 0.382-4.53 1.774-6.107 1.382-1.566 5.282-2.006 5.321-2.010 0.227-0.025 0.401-0.224 0.405-0.465s-0.162-0.447-0.388-0.481c-1.126-0.168-4.28-0.859-5.345-2.019-1.063-1.159-1.638-4.803-1.769-6.11-0.025-0.245-0.222-0.43-0.455-0.426s-0.425 0.193-0.444 0.438c-0.097 1.257-0.606 4.803-1.772 6.102-1.398 1.557-5.286 2.009-5.325 2.013-0.231 0.026-0.405 0.232-0.404 0.477s0.179 0.449 0.409 0.472c0.040 0.004 3.973 0.409 5.31 2.001 1.358 1.618 1.778 6.076 1.782 6.121 0.022 0.245 0.217 0.431 0.449 0.431z"></path>
            <path fill="#fc9" style="fill: var(--color1, #fc9)"
                  d="M16.457 26.552c-0.51 0.578-0.856 1.535-1.086 2.456-0.231-0.913-0.572-1.863-1.063-2.448-0.524-0.624-1.423-1.033-2.273-1.296 0.837-0.265 1.726-0.668 2.263-1.265 0.515-0.573 0.862-1.527 1.091-2.447 0.235 0.944 0.581 1.914 1.074 2.451 0.525 0.572 1.466 0.978 2.342 1.252-0.864 0.264-1.797 0.674-2.348 1.298zM20.943 24.828c-0.818-0.123-3.107-0.623-3.868-1.452s-1.177-3.476-1.273-4.426c-0.023-0.229-0.206-0.402-0.424-0.402-0.002 0-0.004 0-0.005 0-0.22 0.003-0.402 0.182-0.42 0.413-0.071 0.913-0.438 3.486-1.275 4.418-0.831 0.926-3.061 1.358-3.85 1.447-0.218 0.024-0.383 0.219-0.382 0.451s0.169 0.424 0.387 0.445c0.797 0.078 3.040 0.488 3.835 1.435 0.81 0.965 1.202 3.529 1.285 4.436 0.021 0.231 0.205 0.407 0.424 0.407 0.001 0 0.001 0 0.002 0 0.22-0.001 0.404-0.18 0.423-0.412 0.074-0.912 0.448-3.484 1.277-4.423 0.821-0.931 3.055-1.358 3.846-1.444 0.214-0.023 0.378-0.212 0.382-0.439s-0.153-0.422-0.366-0.454z"></path>
            <path fill="#fc9" style="fill: var(--color1, #fc9)"
                  d="M24.296 16.569c-0.309 0.35-0.532 0.884-0.691 1.43-0.158-0.54-0.376-1.069-0.672-1.422-0.323-0.385-0.835-0.654-1.35-0.839 0.507-0.184 1.012-0.446 1.342-0.814 0.313-0.348 0.537-0.882 0.696-1.428 0.162 0.563 0.383 1.107 0.681 1.432 0.322 0.351 0.86 0.613 1.397 0.801-0.529 0.186-1.062 0.455-1.402 0.841zM27.465 15.351c-0.557-0.083-2.113-0.421-2.624-0.978-0.452-0.493-0.765-2.105-0.856-3.005-0.020-0.202-0.182-0.355-0.374-0.355-0.002 0-0.003 0-0.005 0-0.194 0.003-0.354 0.161-0.37 0.365-0.048 0.622-0.296 2.373-0.858 2.999-0.557 0.62-2.072 0.913-2.608 0.973-0.193 0.021-0.338 0.193-0.337 0.398s0.149 0.374 0.341 0.393c0.542 0.053 2.063 0.329 2.595 0.963 0.545 0.649 0.811 2.396 0.867 3.014 0.019 0.204 0.181 0.359 0.374 0.359 0.001 0 0.001 0 0.002 0 0.195-0.001 0.357-0.159 0.373-0.363 0.050-0.621 0.302-2.371 0.86-3.003 0.55-0.623 2.067-0.912 2.605-0.97 0.189-0.021 0.334-0.187 0.338-0.387s-0.135-0.373-0.324-0.401z"></path>
            <path fill="#fc9" style="fill: var(--color1, #fc9)"
                  d="M10.212 6.889c-0.234-0.026-0.444 0.154-0.468 0.401-0.075 0.761-0.767 0.894-0.842 0.906-0.233 0.034-0.397 0.26-0.365 0.506 0.029 0.226 0.212 0.389 0.422 0.389 0.019 0 0.038-0.001 0.058-0.004 0.494-0.071 1.458-0.518 1.576-1.705 0.025-0.247-0.145-0.468-0.38-0.494z"></path>
            <path fill="#fc9" style="fill: var(--color1, #fc9)"
                  d="M15.267 24.061c-0.222 0-0.401 0.19-0.401 0.424 0 0.227-0.293 0.289-0.322 0.295-0.219 0.036-0.368 0.253-0.334 0.484 0.031 0.209 0.202 0.358 0.396 0.358 0.021 0 0.042-0.002 0.063-0.005 0.346-0.057 1-0.368 1-1.132 0-0.234-0.18-0.424-0.401-0.424z"></path>
        </symbol>
        <symbol id="icon-logo-text" viewBox="0 0 448 32">
            <path fill="#fc9" style="fill: var(--color1, #fc9)"
                  d="M0 31.561h6.097v-0.496c-1.256-0.305-1.793-1.068-1.793-5.166v-10.562h18.647v10.562c0 4.099-0.537 4.862-1.793 5.166v0.496h6.097v-0.496c-1.256-0.305-1.793-1.068-1.793-5.166v-19.884c0-4.099 0.537-4.852 1.793-5.167v-0.496h-6.097v0.496c1.256 0.315 1.793 1.068 1.793 5.167v8.694h-18.647v-8.694c0-4.099 0.537-4.852 1.793-5.167v-0.496h-6.097v0.496c1.256 0.315 1.793 1.058 1.793 5.167v19.884c0 4.099-0.537 4.862-1.793 5.166v0.496z"></path>
            <path fill="#fc9" style="fill: var(--color1, #fc9)"
                  d="M30.535 31.561h4.88v-0.496c-1.563-0.305-1.563-1.954-0.403-4.766l2.694-6.673h13.355l2.78 6.673c1.572 3.813 1.62 4.414 0.364 4.766v0.496h5.647v-0.496c-0.901-0.305-1.841-0.953-3.413-4.766l-10.891-26.252-2.291 0.953 0.278 0.581c0.155 0.269 0.243 0.571 0.259 0.881s-0.044 0.619-0.172 0.902l-9.328 22.878c-1.563 3.813-2.646 4.461-3.758 4.766v0.553zM37.975 19.065l6.318-15.681 6.519 15.681h-12.837z"></path>
            <path fill="#fc9" style="fill: var(--color1, #fc9)"
                  d="M63.659 31.561h5.292v-0.496c-1.659-0.353-2.694-1.334-2.694-5.967v-21.181l11.754 19.169h0.604l12.032-19.436v22.248c0 4.099-0.537 4.862-1.793 5.166v0.496h6.059v-0.496c-1.256-0.305-1.793-1.068-1.793-5.166v-19.065c0-4.633 0.959-5.615 2.426-5.967v-0.515h-3.643l-1.208 1.964v0.095l-11.207 18.111-12.463-20.17h-3.988v0.496c1.476 0.353 2.416 1.335 2.416 5.967v19.065c0 4.099-0.537 4.862-1.793 5.166v0.515z"></path>
            <path fill="#fc9" style="fill: var(--color1, #fc9)"
                  d="M101.854 31.561h6.098v-0.496c-1.256-0.305-1.793-1.068-1.793-5.166v-6.835h4.305c7.401 0 12.109-3.47 12.109-9.799 0-5.090-3.634-8.922-11.974-8.922h-8.744v0.505c1.256 0.315 1.793 1.068 1.793 5.167v19.884c0 4.099-0.537 4.862-1.793 5.166v0.496zM106.159 18.454v-17.387c0.805-0.048 1.611-0.086 2.426-0.086 7.353-0.029 11.255 3.384 11.255 9.18 0 5.529-3.682 8.293-9.328 8.293h-4.353z"></path>
            <path fill="#fc9" style="fill: var(--color1, #fc9)"
                  d="M134.633 31.561h6.136v-0.496c-1.256-0.305-1.793-1.068-1.793-5.166v-24.946h3.010c4.027 0 5.551 1.068 6.893 3.927l0.412-0.095-0.268-4.433h-22.731l-0.269 4.413 0.403 0.095c1.342-2.86 2.876-3.927 6.903-3.927h3.097v24.965c0 4.099-0.546 4.862-1.793 5.166v0.496z"></path>
            <path fill="#fc9" style="fill: var(--color1, #fc9)"
                  d="M169.693 32c7.526 0 15.781-4.718 15.781-15.91-0.047-10.924-8.254-16.090-15.781-16.090-9.586 0-15.877 6.549-15.877 16.005 0 10.915 8.207 15.995 15.877 15.995zM156.271 13.593c0-7.349 4.497-12.745 12.070-12.745 8.379 0 14.706 8.465 14.706 17.558 0 7.626-4.707 12.754-12.242 12.754-8.427 0-14.534-8.56-14.534-17.568z"></path>
            <path fill="#fc9" style="fill: var(--color1, #fc9)"
                  d="M215.194 31.914h0.576v-25.899c0-4.099 0.536-4.852 1.792-5.167v-0.496h-5.147v0.496c1.658 0.353 2.683 1.335 2.683 5.967v20.685l-20.354-27.148h-3.72v0.496c1.611 0.315 2.33 1.068 2.33 5.167v19.884c0 4.099-0.536 4.862-1.794 5.166v0.496h5.158v-0.496c-1.658-0.353-2.694-1.334-2.694-5.967v-21.486l21.169 28.301z"></path>
            <path fill="#fc9" style="fill: var(--color1, #fc9)"
                  d="M233.659 32c5.474 0 10.181-3.432 10.181-8.379 0-4.68-3.901-6.673-9.242-8.827-4.122-1.687-8.829-3.517-8.829-7.883 0-4.147 3.365-6.196 7.037-6.196 5.963 0 8.389 3.069 9.865 6.148l0.355-0.086-0.174-4.509c-2.682-1.573-5.765-2.345-8.878-2.221-6.097 0-10.267 3.165-10.267 8.064 0 4.232 2.781 6.415 8.83 8.779 3.988 1.563 9.146 3.66 9.146 8.207 0 3.565-3.317 6.234-7.401 6.234-6.587 0-9.367-3.965-10.891-8.245l-0.451 0.048 0.315 5.719c3.070 2.066 6.696 3.162 10.403 3.146z"></path>
            <path fill="#fc9" style="fill: var(--color1, #fc9)"
                  d="M285.89 31.866c2.732 0 7.537-3.603 7.537-9.98 0.049-1.329-0.286-2.644-0.968-3.789-0.68-1.145-1.675-2.073-2.868-2.674h5.243l0.27-0.534h-15.762l-0.268 0.534h9.329c1.39 0.486 2.549 4.633 2.549 7.397s-0.181 7.445-2.875 7.445c-2.953 0-9.722-6.863-15.061-13.24-2.062-2.402-6.28-6.997-6.28-10.829-0.003-0.727 0.145-1.446 0.431-2.114s0.709-1.271 1.237-1.772c0.53-0.501 1.157-0.889 1.842-1.14s1.416-0.361 2.146-0.322c2.875 0 5.694 0.953 7.622 5.348l0.315-0.086-0.489-4.595c-1.798-0.986-3.823-1.492-5.876-1.468-6.232 0-9.195 3.47-9.195 7.397 0 2.316 0.958 4.28 2.56 6.549-6.194 1.964-8.073 5.977-8.073 9.628 0 5.31 4.085 8.379 8.629 8.379 3.269 0 6.635-1.783 9.050-6.596 3.528 3.527 7.113 6.463 8.954 6.463zM261.635 22.334c0-2.269 0.757-6.11 5.915-7.931 0.958 1.287 2.156 2.717 3.451 4.366 1.571 1.964 3.586 4.232 5.656 6.329-2.426 4.194-6.011 4.947-7.497 4.947-1.016 0.012-2.024-0.183-2.959-0.573-0.937-0.39-1.784-0.965-2.488-1.692-0.706-0.727-1.253-1.589-1.611-2.534s-0.517-1.952-0.468-2.961v0.048z"></path>
            <path fill="#fc9" style="fill: var(--color1, #fc9)"
                  d="M321.574 32c5.464 0 10.171-3.432 10.171-8.379 0-4.68-3.892-6.673-9.233-8.827-4.122-1.687-8.829-3.517-8.829-7.883 0-4.147 3.365-6.196 7.037-6.196 5.963 0 8.389 3.069 9.865 6.148l0.355-0.086-0.183-4.509c-2.68-1.572-5.758-2.343-8.869-2.221-6.097 0-10.306 3.165-10.306 8.064 0 4.232 2.779 6.415 8.829 8.779 3.989 1.563 9.147 3.66 9.147 8.207 0 3.565-3.317 6.234-7.403 6.234-6.586 0-9.365-3.966-10.891-8.245l-0.45 0.048 0.315 5.719c3.081 2.073 6.722 3.17 10.441 3.146z"></path>
            <path fill="#fc9" style="fill: var(--color1, #fc9)"
                  d="M352.809 32c7.535 0 15.781-4.718 15.781-15.91 0.009-10.924-8.187-16.090-15.781-16.090-9.501 0-15.819 6.549-15.819 16.005 0.009 10.915 8.206 15.995 15.819 15.995zM339.387 13.593c0-7.349 4.553-12.745 12.137-12.745 8.379 0 14.706 8.465 14.706 17.558 0 7.626-4.707 12.754-12.233 12.754-8.437 0-14.61-8.56-14.61-17.568z"></path>
            <path fill="#fc9" style="fill: var(--color1, #fc9)"
                  d="M374.648 31.561h20.344l0.268-4.413-0.402-0.095c-1.352 2.86-2.877 3.927-6.903 3.927h-7.182c-0.242 0.029-0.488 0.003-0.719-0.076-0.23-0.079-0.44-0.21-0.613-0.381-0.174-0.172-0.305-0.38-0.384-0.61s-0.105-0.474-0.076-0.715v-23.183c0-4.099 0.536-4.852 1.792-5.167v-0.496h-6.097v0.496c1.256 0.315 1.792 1.068 1.792 5.167v19.884c0 4.099-0.536 4.862-1.792 5.166l-0.029 0.496z"></path>
            <path fill="#fc9" style="fill: var(--color1, #fc9)"
                  d="M400.073 31.561h21.477l0.402-5.309-0.402-0.086c-1.487 3.746-3.835 4.814-7.89 4.814h-7.488c-0.244 0.031-0.491 0.007-0.722-0.072s-0.442-0.209-0.616-0.381c-0.172-0.172-0.303-0.382-0.382-0.612s-0.104-0.476-0.073-0.717v-13.946h7.354c4.66 0 5.647 1.029 6.001 2.679h0.5v-5.939h-0.5c-0.354 1.649-1.341 2.669-6.001 2.669h-7.354v-13.707h8.073c4.026 0 6.499 1.335 7.88 4.814l0.413-0.086-0.536-5.329h-20.134v0.496c1.257 0.315 1.794 1.068 1.794 5.167v19.884c0 4.099-0.536 4.862-1.794 5.166v0.496z"></path>
            <path fill="#fc9" style="fill: var(--color1, #fc9)"
                  d="M437.818 32c5.475 0 10.182-3.432 10.182-8.379 0-4.68-3.902-6.673-9.242-8.827-4.123-1.687-8.83-3.517-8.83-7.883 0-4.147 3.366-6.196 7.037-6.196 5.964 0 8.39 3.098 9.865 6.148l0.355-0.086-0.172-4.509c-2.683-1.573-5.766-2.345-8.878-2.221-6.098 0-10.267 3.165-10.267 8.064 0 4.232 2.779 6.415 8.829 8.779 3.988 1.563 9.146 3.66 9.146 8.207 0 3.565-3.317 6.234-7.39 6.234-6.597 0-9.378-3.965-10.901-8.245l-0.451 0.048 0.317 5.719c3.070 2.066 6.696 3.162 10.402 3.146z"></path>
        </symbol>
        <symbol id="icon-Slogan11" viewBox="0 0 57 32">
            <path fill="#fc9" style="fill: var(--color1, #fc9)"
                  d="M2.93 1.198h0.791v1.201h1.582v0.742h-1.582v1.877c-0.013 0.273 0.048 0.544 0.178 0.785 0.066 0.094 0.156 0.169 0.261 0.217s0.221 0.068 0.336 0.058c0.135 0.003 0.27-0.021 0.395-0.071 0.102-0.046 0.199-0.103 0.289-0.169l0.249 0.593c-0.148 0.107-0.312 0.189-0.486 0.243-0.207 0.074-0.425 0.11-0.645 0.106-0.198 0.021-0.397-0.006-0.581-0.080s-0.347-0.192-0.474-0.344c-0.232-0.386-0.341-0.832-0.312-1.28v-3.879z"></path>
            <path fill="#fc9" style="fill: var(--color1, #fc9)"
                  d="M8.98 0h0.771v2.898c0.178-0.17 0.387-0.303 0.617-0.393 0.249-0.108 0.519-0.165 0.791-0.165 0.487-0.029 0.965 0.133 1.333 0.452 0.176 0.2 0.308 0.433 0.391 0.686s0.112 0.519 0.088 0.783v2.478h-0.763v-2.356c0-0.869-0.407-1.304-1.222-1.304-0.241-0.001-0.479 0.053-0.696 0.157-0.205 0.092-0.388 0.226-0.538 0.393v3.141h-0.771v-6.769z"></path>
            <path fill="#fc9" style="fill: var(--color1, #fc9)"
                  d="M20.495 6.247c-0.218 0.199-0.479 0.345-0.763 0.428-0.283 0.090-0.577 0.136-0.874 0.137-0.327 0.003-0.653-0.051-0.961-0.161-0.271-0.101-0.517-0.259-0.721-0.462s-0.363-0.447-0.465-0.716c-0.109-0.295-0.163-0.608-0.158-0.923-0.002-0.3 0.046-0.599 0.142-0.883 0.097-0.265 0.247-0.508 0.439-0.715 0.185-0.199 0.41-0.358 0.66-0.467 0.304-0.126 0.631-0.187 0.961-0.181 0.271-0.002 0.539 0.047 0.791 0.145 0.24 0.087 0.461 0.22 0.648 0.393 0.183 0.176 0.329 0.387 0.427 0.62 0.107 0.248 0.162 0.515 0.162 0.785 0.002 0.175-0.016 0.35-0.051 0.522h-3.333c0.008 0.183 0.053 0.362 0.134 0.527s0.194 0.311 0.333 0.431c0.299 0.237 0.674 0.358 1.056 0.342 0.263 0.004 0.524-0.040 0.771-0.13 0.206-0.073 0.396-0.184 0.561-0.326l0.241 0.632zM18.735 3.019c-0.345-0.014-0.683 0.106-0.941 0.334-0.236 0.214-0.387 0.505-0.423 0.821h2.641c-0.001-0.158-0.033-0.314-0.096-0.459s-0.154-0.276-0.268-0.385c-0.124-0.109-0.269-0.193-0.425-0.246s-0.323-0.075-0.488-0.064z"></path>
            <path fill="#fc9" style="fill: var(--color1, #fc9)"
                  d="M29.095 2.399h0.791v0.526c0.169-0.182 0.375-0.327 0.605-0.424 0.348-0.155 0.731-0.212 1.109-0.165s0.736 0.197 1.034 0.432c0.177 0.195 0.311 0.425 0.394 0.674s0.113 0.513 0.088 0.775v2.501h-0.791v-2.356c0.033-0.358-0.073-0.715-0.297-0.997-0.121-0.115-0.266-0.203-0.424-0.259s-0.326-0.077-0.493-0.063c-0.242-0.002-0.482 0.052-0.7 0.157-0.201 0.096-0.381 0.229-0.53 0.393v3.141h-0.791l0.004-4.335z"></path>
            <path fill="#fc9" style="fill: var(--color1, #fc9)"
                  d="M40.61 6.247c-0.218 0.199-0.479 0.345-0.763 0.428-0.281 0.090-0.575 0.136-0.87 0.137-0.327 0.004-0.653-0.050-0.961-0.161-0.276-0.095-0.528-0.251-0.736-0.455-0.207-0.196-0.369-0.435-0.474-0.699-0.109-0.295-0.163-0.608-0.158-0.923-0.003-0.301 0.047-0.6 0.146-0.883 0.094-0.265 0.242-0.508 0.435-0.715 0.197-0.206 0.435-0.368 0.7-0.475 0.303-0.126 0.629-0.187 0.957-0.181 0.271-0.003 0.539 0.046 0.791 0.145 0.241 0.086 0.461 0.219 0.648 0.393 0.184 0.176 0.329 0.387 0.427 0.62 0.107 0.248 0.162 0.515 0.162 0.785 0.002 0.175-0.016 0.35-0.051 0.522h-3.349c0.007 0.183 0.052 0.363 0.132 0.527s0.194 0.311 0.334 0.431c0.298 0.236 0.671 0.357 1.052 0.342 0.269 0.006 0.538-0.038 0.791-0.13 0.206-0.073 0.396-0.184 0.562-0.326l0.225 0.616zM38.85 3.019c-0.352-0.019-0.697 0.101-0.961 0.334-0.235 0.214-0.384 0.506-0.419 0.821h2.641c-0.004-0.318-0.135-0.622-0.364-0.844-0.247-0.215-0.569-0.327-0.898-0.31z"></path>
            <path fill="#fc9" style="fill: var(--color1, #fc9)"
                  d="M49.143 6.753h-0.676l-1.083-2.827c-0.036-0.090-0.067-0.181-0.095-0.267s-0.051-0.173-0.075-0.259c-0.032 0.102-0.063 0.2-0.087 0.291-0.025 0.091-0.057 0.18-0.095 0.267l-1.052 2.78h-0.641l-1.447-4.339h0.838l0.854 2.705c0.032 0.114 0.055 0.216 0.075 0.31s0.051 0.196 0.087 0.298c0.031-0.093 0.058-0.187 0.079-0.283 0.024-0.090 0.059-0.196 0.103-0.326l0.989-2.721h0.668l0.996 2.721c0.032 0.102 0.067 0.208 0.103 0.314s0.063 0.204 0.095 0.31c0.047-0.216 0.103-0.436 0.174-0.66l0.791-2.678h0.791l-1.392 4.362z"></path>
            <path fill="#fc9" style="fill: var(--color1, #fc9)"
                  d="M5.394 16.774c0.003-0.068-0.011-0.135-0.041-0.195s-0.076-0.112-0.133-0.15c-0.134-0.091-0.281-0.164-0.435-0.216-0.174-0.063-0.364-0.122-0.569-0.181-0.197-0.061-0.387-0.144-0.565-0.247-0.17-0.099-0.317-0.233-0.431-0.393-0.124-0.191-0.185-0.417-0.174-0.644-0.010-0.168 0.021-0.337 0.089-0.491s0.174-0.29 0.306-0.396c0.306-0.227 0.682-0.342 1.064-0.326 0.315-0.008 0.628 0.047 0.921 0.161 0.212 0.079 0.408 0.196 0.577 0.345l-0.364 0.585c-0.145-0.121-0.308-0.221-0.482-0.294-0.194-0.085-0.405-0.128-0.617-0.126-0.184-0.011-0.366 0.046-0.51 0.161-0.059 0.047-0.106 0.107-0.138 0.175s-0.047 0.143-0.044 0.218c-0.002 0.070 0.012 0.139 0.043 0.202s0.075 0.118 0.131 0.16c0.132 0.095 0.277 0.17 0.431 0.224 0.174 0.063 0.364 0.126 0.565 0.185 0.197 0.062 0.387 0.143 0.569 0.239 0.173 0.097 0.322 0.231 0.435 0.393 0.122 0.177 0.183 0.39 0.174 0.605 0.007 0.205-0.044 0.407-0.146 0.585-0.089 0.158-0.215 0.293-0.368 0.393-0.164 0.11-0.348 0.189-0.542 0.232-0.207 0.053-0.419 0.079-0.633 0.079-0.173 0-0.346-0.021-0.514-0.063-0.15-0.044-0.295-0.1-0.435-0.169-0.14-0.057-0.272-0.129-0.395-0.216-0.093-0.064-0.172-0.146-0.233-0.239l0.435-0.542c0.072 0.078 0.153 0.146 0.241 0.204 0.101 0.070 0.208 0.13 0.32 0.181 0.113 0.047 0.229 0.085 0.348 0.114 0.111 0.029 0.225 0.044 0.34 0.043 0.192 0.005 0.382-0.045 0.546-0.145 0.076-0.047 0.138-0.113 0.179-0.192s0.060-0.167 0.054-0.256z"></path>
            <path fill="#fc9" style="fill: var(--color1, #fc9)"
                  d="M9.783 12.427h0.791v1.198h1.582v0.722h-1.582v1.881c-0.013 0.273 0.048 0.544 0.178 0.785 0.066 0.094 0.155 0.168 0.259 0.217s0.219 0.068 0.334 0.058c0.136 0.003 0.27-0.022 0.395-0.075 0.102-0.043 0.199-0.099 0.289-0.165l0.229 0.62c-0.14 0.112-0.298 0.199-0.467 0.259-0.208 0.075-0.427 0.113-0.649 0.11-0.199 0.020-0.399-0.010-0.583-0.088s-0.345-0.2-0.469-0.356c-0.232-0.384-0.341-0.829-0.312-1.276l0.004-3.891z"></path>
            <path fill="#fc9" style="fill: var(--color1, #fc9)"
                  d="M15.54 15.784c-0.004-0.308 0.050-0.614 0.158-0.903 0.11-0.266 0.271-0.509 0.474-0.715 0.21-0.205 0.46-0.364 0.735-0.467 0.304-0.115 0.627-0.172 0.953-0.169 0.323-0.003 0.644 0.054 0.945 0.169 0.272 0.105 0.519 0.264 0.728 0.467 0.203 0.205 0.364 0.448 0.474 0.715 0.232 0.58 0.232 1.226 0 1.806-0.109 0.267-0.27 0.51-0.474 0.715-0.207 0.206-0.455 0.366-0.728 0.471-0.302 0.114-0.622 0.17-0.945 0.165-0.325 0.004-0.648-0.052-0.953-0.165-0.276-0.103-0.527-0.264-0.736-0.471-0.204-0.205-0.365-0.448-0.474-0.715-0.109-0.289-0.162-0.595-0.158-0.903zM16.362 15.784c-0.002 0.213 0.034 0.424 0.107 0.624 0.070 0.178 0.177 0.34 0.313 0.475s0.299 0.241 0.478 0.311c0.192 0.078 0.398 0.117 0.605 0.114 0.206 0.002 0.412-0.034 0.605-0.106 0.175-0.075 0.333-0.183 0.467-0.318 0.134-0.14 0.238-0.305 0.305-0.487 0.158-0.401 0.158-0.847 0-1.249-0.067-0.18-0.17-0.345-0.305-0.483-0.134-0.136-0.294-0.244-0.471-0.318-0.192-0.078-0.398-0.118-0.605-0.118-0.205 0.001-0.408 0.041-0.597 0.118-0.179 0.069-0.34 0.174-0.474 0.31-0.134 0.14-0.24 0.304-0.312 0.483-0.080 0.205-0.119 0.424-0.115 0.644z"></path>
            <path fill="#fc9" style="fill: var(--color1, #fc9)"
                  d="M23.828 13.625h0.791v0.51c0.114-0.163 0.257-0.303 0.423-0.412 0.198-0.122 0.428-0.183 0.66-0.177 0.142-0.003 0.284 0.011 0.423 0.043 0.092 0.024 0.178 0.065 0.253 0.122l-0.281 0.722c-0.088-0.057-0.184-0.1-0.285-0.13-0.099-0.027-0.202-0.039-0.305-0.035-0.211-0.014-0.419 0.053-0.581 0.188-0.132 0.122-0.243 0.266-0.328 0.424v3.063h-0.791l0.020-4.319z"></path>
            <path fill="#fc9" style="fill: var(--color1, #fc9)"
                  d="M31.863 17.944c-0.132 0.323-0.279 0.638-0.443 0.946-0.109 0.212-0.242 0.41-0.395 0.593-0.107 0.128-0.243 0.23-0.395 0.298-0.135 0.057-0.28 0.087-0.427 0.086-0.154 0.002-0.307-0.026-0.451-0.082-0.131-0.046-0.256-0.108-0.372-0.185l0.253-0.585 0.225 0.086c0.082 0.033 0.169 0.050 0.257 0.051 0.094-0.001 0.187-0.023 0.272-0.063s0.161-0.098 0.222-0.169c0.184-0.224 0.331-0.476 0.435-0.746l0.095-0.232-2.088-4.319h0.929l1.273 2.748c0.052 0.109 0.098 0.22 0.138 0.334 0.040 0.106 0.083 0.212 0.127 0.318 0.055-0.209 0.123-0.429 0.202-0.66l1.004-2.748h0.886l-1.748 4.327z"></path>
            <path fill="#fc9" style="fill: var(--color1, #fc9)"
                  d="M41.353 15.784c-0.004-0.308 0.050-0.614 0.158-0.903 0.107-0.268 0.269-0.511 0.474-0.715 0.204-0.204 0.45-0.363 0.72-0.467 0.304-0.115 0.627-0.172 0.953-0.169 0.323-0.003 0.644 0.054 0.945 0.169 0.269 0.104 0.514 0.262 0.718 0.465s0.364 0.446 0.468 0.713c0.237 0.579 0.237 1.227 0 1.806-0.106 0.267-0.266 0.509-0.47 0.711s-0.448 0.361-0.717 0.466c-0.302 0.114-0.622 0.169-0.945 0.165-0.325 0.005-0.648-0.051-0.953-0.165-0.277-0.102-0.528-0.263-0.736-0.471-0.197-0.201-0.35-0.441-0.451-0.703-0.112-0.288-0.168-0.594-0.166-0.903zM42.175 15.784c-0.002 0.213 0.034 0.424 0.107 0.624 0.109 0.276 0.302 0.512 0.551 0.675s0.543 0.247 0.841 0.24c0.205 0.002 0.409-0.034 0.601-0.106 0.178-0.073 0.339-0.181 0.474-0.318 0.134-0.14 0.238-0.305 0.304-0.487 0.158-0.401 0.158-0.847 0-1.249-0.067-0.18-0.17-0.345-0.304-0.483-0.135-0.137-0.296-0.245-0.474-0.318-0.191-0.078-0.395-0.118-0.601-0.118-0.205-0-0.408 0.040-0.597 0.118-0.179 0.068-0.341 0.174-0.475 0.31-0.127 0.142-0.226 0.305-0.293 0.483-0.087 0.198-0.132 0.412-0.134 0.628z"></path>
            <path fill="#fc9" style="fill: var(--color1, #fc9)"
                  d="M49.736 12.926c-0.038-0.483 0.103-0.963 0.395-1.351 0.143-0.152 0.318-0.271 0.513-0.349s0.404-0.111 0.614-0.099c0.236-0.004 0.47 0.034 0.692 0.114 0.174 0.056 0.334 0.149 0.467 0.275l-0.269 0.585c-0.094-0.080-0.203-0.141-0.32-0.181-0.142-0.050-0.292-0.073-0.443-0.071-0.122-0.007-0.245 0.015-0.357 0.063s-0.212 0.122-0.291 0.215c-0.179 0.259-0.261 0.571-0.233 0.883v0.613h1.455v0.722h-1.455v3.597h-0.791l0.024-5.018z"></path>
            <path fill="#fc9" style="fill: var(--color1, #fc9)"
                  d="M38.387 23.009h0.791v2.835c0.383-0.32 0.864-0.5 1.364-0.51 0.302-0.005 0.602 0.051 0.882 0.165 0.247 0.103 0.47 0.257 0.652 0.452 0.178 0.205 0.313 0.444 0.395 0.703 0.095 0.286 0.142 0.586 0.138 0.887 0.005 0.331-0.054 0.66-0.174 0.97-0.108 0.278-0.277 0.529-0.494 0.734-0.218 0.21-0.478 0.372-0.763 0.475-0.323 0.111-0.663 0.165-1.004 0.161-0.34 0.002-0.678-0.046-1.004-0.141-0.283-0.073-0.551-0.195-0.791-0.361l0.008-6.369zM40.364 26.052c-0.248-0.001-0.492 0.062-0.708 0.185-0.182 0.103-0.345 0.236-0.482 0.393v2.238c0.156 0.108 0.33 0.189 0.514 0.239 0.177 0.045 0.359 0.067 0.542 0.067 0.211 0.003 0.42-0.035 0.617-0.11 0.184-0.066 0.351-0.17 0.49-0.306 0.146-0.138 0.261-0.303 0.34-0.487 0.085-0.208 0.127-0.431 0.123-0.656 0.013-0.206-0.016-0.413-0.083-0.608s-0.174-0.376-0.312-0.53c-0.135-0.141-0.297-0.251-0.478-0.325s-0.375-0.109-0.57-0.103l0.008 0.004z"></path>
            <path fill="#fc9" style="fill: var(--color1, #fc9)"
                  d="M46.331 25.722c0.206-0.127 0.43-0.222 0.664-0.283 0.257-0.074 0.523-0.111 0.791-0.11 0.24-0.026 0.482 0.003 0.71 0.083s0.433 0.21 0.603 0.38c0.273 0.382 0.405 0.845 0.376 1.311v2.678h-0.743v-0.561c-0.146 0.177-0.325 0.325-0.526 0.436-0.27 0.137-0.571 0.202-0.874 0.188-0.362 0.018-0.716-0.108-0.985-0.349-0.127-0.131-0.225-0.286-0.288-0.457s-0.091-0.352-0.080-0.533c-0.003-0.205 0.040-0.407 0.127-0.593 0.084-0.169 0.204-0.317 0.352-0.436 0.155-0.121 0.332-0.211 0.522-0.263 0.215-0.062 0.437-0.094 0.66-0.094 0.187 0.002 0.374 0.022 0.558 0.059 0.194 0.028 0.377 0.104 0.534 0.22 0.001-0.185-0.011-0.37-0.036-0.554-0.013-0.154-0.057-0.303-0.13-0.44-0.075-0.12-0.182-0.218-0.308-0.283-0.164-0.073-0.342-0.108-0.522-0.102-0.229-0.006-0.458 0.026-0.676 0.094-0.181 0.062-0.357 0.138-0.526 0.228l-0.202-0.62zM47.605 29.153c0.244 0.012 0.486-0.051 0.692-0.181 0.162-0.112 0.309-0.244 0.439-0.393v-0.542c-0.288-0.197-0.631-0.299-0.981-0.291-0.119 0.001-0.237 0.015-0.352 0.043-0.108 0.025-0.211 0.069-0.304 0.13-0.087 0.059-0.158 0.137-0.21 0.228-0.053 0.096-0.079 0.205-0.075 0.314-0.004 0.094 0.012 0.187 0.047 0.274s0.090 0.165 0.158 0.229c0.163 0.135 0.373 0.203 0.585 0.188z"></path>
            <path fill="#fc9" style="fill: var(--color1, #fc9)"
                  d="M52.733 30.406c-0.004-0.164 0.029-0.326 0.098-0.475s0.17-0.281 0.297-0.385c0.299-0.238 0.652-0.398 1.028-0.467-0.041-0.048-0.071-0.104-0.087-0.165-0.016-0.063-0.024-0.128-0.024-0.192-0.005-0.13 0.037-0.258 0.119-0.361-0.295-0.116-0.549-0.317-0.728-0.577-0.173-0.253-0.263-0.554-0.257-0.86-0-0.211 0.042-0.42 0.125-0.614s0.204-0.37 0.357-0.517c0.166-0.147 0.357-0.263 0.565-0.342 0.238-0.085 0.49-0.126 0.743-0.122 0.203-0.001 0.405 0.026 0.601 0.079 0.183 0.052 0.357 0.132 0.514 0.239l1.286-0.31 0.020 0.624-0.846 0.188c0.137 0.229 0.209 0.491 0.205 0.758 0.002 0.214-0.042 0.425-0.13 0.62-0.083 0.189-0.205 0.358-0.36 0.495-0.164 0.147-0.357 0.261-0.566 0.334-0.233 0.091-0.481 0.142-0.732 0.149h-0.146c-0.049 0.004-0.098 0.004-0.146 0-0.023 0.038-0.036 0.081-0.039 0.126 0 0.039 0 0.078 0 0.114-0.003 0.105 0.029 0.209 0.091 0.294h0.261c0.296-0.003 0.592 0.026 0.882 0.086 0.248 0.048 0.486 0.137 0.704 0.263 0.189 0.103 0.35 0.25 0.471 0.428 0.121 0.184 0.183 0.4 0.178 0.62 0.005 0.217-0.057 0.431-0.178 0.613-0.13 0.172-0.299 0.309-0.494 0.401-0.218 0.124-0.456 0.209-0.704 0.251-0.29 0.062-0.585 0.092-0.882 0.090-0.297 0.002-0.594-0.026-0.886-0.082-0.25-0.044-0.491-0.13-0.712-0.255-0.188-0.104-0.35-0.251-0.471-0.428-0.114-0.187-0.169-0.403-0.158-0.62zM53.469 30.406c0 0.122 0.038 0.242 0.109 0.342s0.171 0.177 0.286 0.219c0.345 0.144 0.717 0.211 1.091 0.196 0.373 0.016 0.744-0.051 1.088-0.196 0.115-0.043 0.215-0.119 0.285-0.22s0.109-0.219 0.11-0.342c-0.002-0.123-0.041-0.242-0.111-0.343s-0.169-0.18-0.284-0.226c-0.345-0.151-0.719-0.221-1.096-0.204-0.38-0.016-0.758 0.054-1.107 0.204-0.111 0.049-0.205 0.129-0.271 0.23s-0.101 0.219-0.101 0.339zM53.896 26.935c-0.003 0.124 0.020 0.248 0.068 0.363s0.119 0.219 0.209 0.305c0.222 0.166 0.493 0.255 0.771 0.255s0.549-0.090 0.771-0.255c0.098-0.086 0.175-0.192 0.227-0.31s0.077-0.247 0.073-0.377c0.003-0.128-0.021-0.254-0.071-0.372s-0.124-0.224-0.218-0.311c-0.104-0.101-0.228-0.179-0.364-0.228s-0.282-0.069-0.427-0.059c-0.145-0.009-0.289 0.012-0.426 0.061s-0.26 0.126-0.365 0.225c-0.089 0.093-0.157 0.204-0.2 0.325s-0.060 0.25-0.050 0.378z"></path>
            <path fill="#fc9" style="fill: var(--color1, #fc9)"
                  d="M0.332 31.843c3.622 0 6.746-5.587 6.746-6.757 0-0.11-0.055-0.157-0.174-0.157-0.141 0.002-0.278 0.048-0.391 0.131s-0.198 0.199-0.242 0.332c-0.087 0.532-0.11 1.072-0.067 1.61-0.707 1.255-1.617 2.386-2.693 3.349 0.52-1.467 0.81-3.004 0.858-4.559 0-0.487-0.087-0.864-0.478-0.864-0.293 0-0.771 0.393-1.376 0.911l0.067 0.094c0.241-0.265 0.564-0.444 0.917-0.51 0.245 0 0.304 0.31 0.304 0.746-0.060 1.469-0.35 2.919-0.858 4.299-0.091 0.206-0.224 0.39-0.391 0.541s-0.364 0.267-0.578 0.338c-0.452-0.13-0.915-0.216-1.384-0.259-0.148 0.022-0.286 0.090-0.392 0.194s-0.177 0.24-0.201 0.387c0 0.114 0.099 0.173 0.332 0.173z"></path>
            <path fill="#fc9" style="fill: var(--color1, #fc9)"
                  d="M10.815 29.907c1.629 0 3.377-2.317 3.377-3.883 0.014-0.142-0.002-0.285-0.048-0.419s-0.121-0.258-0.219-0.362-0.217-0.186-0.35-0.24c-0.133-0.054-0.275-0.079-0.419-0.074-1.696 0-3.424 2.391-3.424 3.824-0.019 0.149-0.005 0.301 0.041 0.445s0.124 0.275 0.228 0.385c0.103 0.11 0.23 0.196 0.371 0.253s0.292 0.081 0.444 0.072zM10.348 28.482c0-1.044 0.925-3.243 2.289-3.243 0.597 0 0.969 0.393 0.969 1.076 0 1.017-0.925 3.282-2.266 3.282-0.621 0-0.992-0.306-0.992-1.115z"></path>
            <path fill="#fc9" style="fill: var(--color1, #fc9)"
                  d="M20.629 29.907c0.293 0 0.913-0.369 1.499-0.911l-0.067-0.098c-0.475 0.416-0.747 0.554-0.953 0.554-0.039 0.003-0.077-0.002-0.114-0.016s-0.069-0.035-0.095-0.063c-0.027-0.028-0.047-0.062-0.058-0.098s-0.015-0.075-0.009-0.114c0.118-0.65 0.36-1.273 0.712-1.834 0.443-0.785 0.898-1.539 1.269-2.12 0.051-0.071 0.020-0.118-0.055-0.118h-0.376c-0.023-0-0.045 0.005-0.065 0.015s-0.037 0.025-0.050 0.044l-0.506 0.785c-0.618 0.874-1.302 1.7-2.048 2.47-0.672 0.687-1.186 1.115-1.582 1.115-0.046 0.005-0.093-0-0.137-0.016s-0.084-0.041-0.116-0.073c-0.033-0.033-0.058-0.073-0.073-0.116s-0.020-0.090-0.014-0.136c0-0.628 1.783-2.933 1.783-3.746 0.005-0.064-0.004-0.129-0.025-0.19s-0.056-0.116-0.101-0.163c-0.045-0.047-0.099-0.083-0.159-0.108s-0.125-0.036-0.189-0.034c-0.297 0-0.898 0.393-1.503 0.911l0.067 0.094c0.478-0.416 0.751-0.53 0.965-0.53 0.036-0.004 0.073 0 0.108 0.013s0.066 0.032 0.091 0.058c0.026 0.026 0.045 0.058 0.056 0.092s0.015 0.071 0.010 0.107c0 0.785-1.72 2.847-1.72 3.64-0.003 0.080 0.012 0.16 0.043 0.234s0.077 0.141 0.136 0.196c0.059 0.055 0.128 0.098 0.205 0.124s0.157 0.037 0.238 0.030c0.478 0 1.186-0.554 2.009-1.414 0.459-0.487 0.949-1.048 1.427-1.649-0.546 0.95-1.036 1.963-1.036 2.548-0.008 0.063-0.003 0.126 0.014 0.187s0.048 0.117 0.089 0.165c0.041 0.048 0.091 0.088 0.149 0.116s0.119 0.044 0.183 0.047z"></path>
            <path fill="#fc9" style="fill: var(--color1, #fc9)"
                  d="M25.338 29.837h0.364c0.024 0.001 0.048-0.004 0.069-0.016s0.038-0.029 0.049-0.051c0.138-0.212 0.605-1.044 1.064-1.936 0.573-1.029 1.289-2.026 1.922-2.356 0.383 0.125 0.783 0.19 1.186 0.192 0.158-0.008 0.308-0.067 0.428-0.169s0.203-0.24 0.236-0.393c0-0.126-0.206-0.165-0.459-0.165-1.261 0-2.108 0.844-2.768 1.841 0.234-0.418 0.402-0.87 0.498-1.339 0.006-0.064-0.001-0.128-0.022-0.188s-0.053-0.116-0.096-0.164-0.096-0.085-0.154-0.111c-0.059-0.026-0.122-0.040-0.186-0.040-0.312 0-0.917 0.393-1.522 0.911l0.067 0.094c0.479-0.416 0.791-0.55 0.985-0.55 0.036-0.002 0.072 0.003 0.106 0.016s0.064 0.033 0.090 0.059c0.025 0.026 0.044 0.057 0.056 0.091s0.016 0.070 0.013 0.106c0 0.609-1.384 3.059-1.977 4.068-0.043 0.051-0.016 0.098 0.051 0.098z"></path>
        </symbol>
        <symbol id="icon-LogoHero" viewBox="0 0 69 32">
            <path fill="#fc9" style="fill: var(--color1, #fc9)"
                  d="M0 26.594h0.944v-0.076c-0.194-0.049-0.278-0.168-0.278-0.807v-1.652h2.887v1.643c0 0.639-0.083 0.758-0.278 0.807v0.085h0.944v-0.076c-0.194-0.049-0.278-0.168-0.278-0.807v-3.105c0-0.639 0.083-0.756 0.278-0.805v-0.076h-0.944v0.076c0.194 0.049 0.278 0.166 0.278 0.805v1.355h-2.887v-1.355c0-0.639 0.083-0.756 0.278-0.805v-0.076h-0.944v0.076c0.194 0.049 0.278 0.166 0.278 0.805v3.096c0 0.639-0.083 0.758-0.278 0.807v0.085z"></path>
            <path fill="#fc9" style="fill: var(--color1, #fc9)"
                  d="M4.728 26.594h0.756v-0.076c-0.242-0.049-0.242-0.306-0.062-0.743l0.417-1.040h2.068l0.431 1.040c0.243 0.594 0.251 0.688 0.056 0.743v0.076h0.874v-0.076c-0.14-0.049-0.285-0.148-0.528-0.743l-1.686-4.099-0.355 0.148 0.043 0.089c0.024 0.042 0.038 0.090 0.040 0.138s-0.007 0.097-0.027 0.141l-1.444 3.566c-0.242 0.594-0.41 0.695-0.582 0.743v0.092zM5.88 24.641l0.978-2.438 1.009 2.432-1.988 0.006z"></path>
            <path fill="#fc9" style="fill: var(--color1, #fc9)"
                  d="M9.857 26.594h0.819v-0.076c-0.257-0.056-0.417-0.209-0.417-0.931v-3.301l1.82 2.988h0.094l1.86-3.028v3.457c0 0.639-0.083 0.758-0.278 0.807v0.085h0.941v-0.076c-0.194-0.049-0.278-0.168-0.278-0.807v-2.98c0-0.724 0.149-0.877 0.376-0.931v-0.076h-0.564l-0.187 0.305v0.015l-1.735 2.823-1.93-3.147h-0.618v0.076c0.229 0.055 0.374 0.208 0.374 0.931v2.971c0 0.639-0.083 0.758-0.278 0.807v0.089z"></path>
            <path fill="#fc9" style="fill: var(--color1, #fc9)"
                  d="M15.771 26.594h0.944v-0.076c-0.194-0.049-0.278-0.168-0.278-0.807v-1.062h0.667c1.146 0 1.875-0.542 1.875-1.529 0-0.793-0.563-1.389-1.854-1.389h-1.354v0.076c0.194 0.049 0.278 0.166 0.278 0.805v3.090c0 0.639-0.083 0.758-0.278 0.807v0.085zM16.438 24.551v-2.711c0.125 0 0.249-0.013 0.376-0.013 1.139 0 1.735 0.527 1.735 1.431 0 0.862-0.57 1.293-1.445 1.293l-0.667 0.001z"></path>
            <path fill="#fc9" style="fill: var(--color1, #fc9)"
                  d="M20.847 26.594h0.95v-0.076c-0.195-0.049-0.278-0.168-0.278-0.807v-3.897h0.466c0.624 0 0.86 0.166 1.067 0.612l0.064-0.015-0.042-0.686h-3.52l-0.042 0.686 0.062 0.015c0.208-0.446 0.445-0.612 1.069-0.612h0.479v3.888c0 0.639-0.085 0.758-0.278 0.807v0.085z"></path>
            <path fill="#fc9" style="fill: var(--color1, #fc9)"
                  d="M26.276 26.658c1.165 0 2.444-0.743 2.444-2.481 0-1.703-1.271-2.508-2.444-2.508-1.473 0-2.451 1.021-2.451 2.494-0.007 1.701 1.263 2.494 2.451 2.494zM24.198 23.787c0-1.145 0.702-1.986 1.875-1.986 1.297 0 2.277 1.319 2.277 2.737 0 1.189-0.729 1.988-1.896 1.988-1.311 0-2.256-1.334-2.256-2.738z"></path>
            <path fill="#fc9" style="fill: var(--color1, #fc9)"
                  d="M33.321 26.643h0.089v-4.037c0-0.639 0.083-0.756 0.278-0.805v-0.076h-0.797v0.076c0.257 0.055 0.416 0.208 0.416 0.932v3.222l-3.152-4.23h-0.576v0.076c0.249 0.049 0.361 0.166 0.361 0.805v3.096c0 0.639-0.083 0.758-0.278 0.807v0.085h0.799v-0.076c-0.257-0.056-0.417-0.209-0.417-0.931v-3.355l3.278 4.411z"></path>
            <path fill="#fc9" style="fill: var(--color1, #fc9)"
                  d="M36.181 26.658c0.848 0 1.577-0.535 1.577-1.307 0-0.73-0.604-1.040-1.431-1.374-0.638-0.264-1.367-0.55-1.367-1.23 0-0.646 0.521-0.966 1.090-0.966 0.923 0 1.299 0.48 1.528 0.958l0.055-0.013-0.027-0.701c-0.415-0.247-0.892-0.367-1.375-0.348-0.944 0-1.59 0.493-1.59 1.257 0 0.66 0.43 1.001 1.367 1.368 0.618 0.244 1.416 0.57 1.416 1.279 0 0.556-0.514 0.973-1.146 0.973-1.020 0-1.45-0.619-1.686-1.287l-0.070 0.007 0.049 0.891c0.475 0.323 1.037 0.494 1.611 0.492z"></path>
            <path fill="#fc9" style="fill: var(--color1, #fc9)"
                  d="M44.268 26.635c0.423 0 1.167-0.562 1.167-1.555 0.007-0.207-0.045-0.412-0.15-0.59s-0.259-0.323-0.444-0.417h0.812l0.042-0.083h-2.441l-0.042 0.083h1.444c0.215 0.076 0.395 0.722 0.395 1.153s-0.028 1.16-0.445 1.16c-0.457 0-1.505-1.070-2.332-2.064-0.319-0.374-0.972-1.090-0.972-1.688-0-0.114 0.022-0.226 0.067-0.331s0.111-0.199 0.193-0.277c0.083-0.078 0.181-0.138 0.287-0.177s0.221-0.055 0.334-0.048c0.445 0 0.882 0.148 1.18 0.833l0.049-0.013-0.076-0.716c-0.278-0.154-0.592-0.232-0.91-0.229-0.965 0-1.424 0.541-1.424 1.153 0 0.361 0.148 0.667 0.396 1.021-0.959 0.306-1.25 0.931-1.25 1.501 0 0.828 0.632 1.307 1.336 1.307 0.506 0 1.027-0.278 1.401-1.030 0.54 0.55 1.096 1.007 1.381 1.007zM40.512 25.142c0-0.354 0.117-0.952 0.916-1.236 0.148 0.201 0.334 0.423 0.534 0.68 0.243 0.306 0.555 0.66 0.876 0.986-0.376 0.654-0.931 0.771-1.161 0.771-0.157 0.002-0.312-0.028-0.456-0.089s-0.275-0.149-0.384-0.262c-0.109-0.112-0.194-0.246-0.25-0.392s-0.081-0.303-0.075-0.459z"></path>
            <path fill="#fc9" style="fill: var(--color1, #fc9)"
                  d="M49.794 26.658c0.846 0 1.575-0.535 1.575-1.307 0-0.73-0.603-1.040-1.43-1.374-0.638-0.264-1.367-0.55-1.367-1.23 0-0.646 0.521-0.966 1.090-0.966 0.923 0 1.299 0.48 1.528 0.958l0.055-0.013-0.027-0.701c-0.415-0.247-0.892-0.367-1.375-0.348-0.944 0-1.59 0.493-1.59 1.257 0 0.66 0.431 1.001 1.367 1.368 0.618 0.244 1.416 0.57 1.416 1.279 0 0.556-0.514 0.973-1.146 0.973-1.020 0-1.45-0.619-1.686-1.287l-0.070 0.007 0.049 0.891c0.475 0.323 1.036 0.494 1.611 0.492z"></path>
            <path fill="#fc9" style="fill: var(--color1, #fc9)"
                  d="M54.63 26.658c1.167 0 2.444-0.743 2.444-2.481 0-1.703-1.269-2.508-2.444-2.508-1.471 0-2.449 1.021-2.449 2.494 0.001 1.701 1.271 2.494 2.449 2.494zM52.552 23.787c0-1.145 0.701-1.986 1.875-1.986 1.297 0 2.276 1.319 2.276 2.737 0 1.189-0.729 1.988-1.894 1.988-1.3 0-2.256-1.334-2.256-2.738z"></path>
            <path fill="#fc9" style="fill: var(--color1, #fc9)"
                  d="M58.012 26.594h3.15l0.042-0.688-0.062-0.013c-0.209 0.446-0.445 0.611-1.069 0.611h-1.112c-0.037 0.005-0.076 0-0.111-0.012s-0.068-0.033-0.095-0.059c-0.027-0.027-0.047-0.059-0.059-0.095s-0.016-0.074-0.012-0.111v-3.619c0-0.639 0.083-0.756 0.278-0.805v-0.076h-0.944v0.076c0.194 0.049 0.278 0.166 0.278 0.805v3.096c0 0.639-0.083 0.758-0.278 0.807l-0.005 0.085z"></path>
            <path fill="#fc9" style="fill: var(--color1, #fc9)"
                  d="M61.949 26.594h3.325l0.062-0.828-0.062-0.013c-0.23 0.584-0.594 0.743-1.222 0.743h-1.159c-0.038 0.005-0.076 0.001-0.112-0.011s-0.069-0.033-0.095-0.059c-0.027-0.027-0.047-0.059-0.059-0.095s-0.016-0.074-0.011-0.112v-2.174h1.139c0.721 0 0.874 0.16 0.929 0.418h0.077v-0.924h-0.077c-0.055 0.257-0.208 0.416-0.929 0.416h-1.139v-2.139h1.25c0.623 0 1.006 0.209 1.22 0.743l0.064-0.013-0.083-0.826h-3.117v0.076c0.194 0.049 0.278 0.166 0.278 0.805v3.104c0 0.639-0.083 0.758-0.278 0.807v0.085z"></path>
            <path fill="#fc9" style="fill: var(--color1, #fc9)"
                  d="M67.793 26.658c0.848 0 1.577-0.535 1.577-1.307 0-0.73-0.604-1.040-1.431-1.374-0.638-0.264-1.367-0.55-1.367-1.23 0-0.646 0.521-0.966 1.090-0.966 0.923 0 1.299 0.48 1.528 0.958l0.055-0.013-0.027-0.701c-0.415-0.247-0.892-0.367-1.375-0.348-0.944 0-1.59 0.493-1.59 1.257 0 0.66 0.43 1.001 1.367 1.368 0.618 0.244 1.416 0.57 1.416 1.279 0 0.556-0.514 0.973-1.145 0.973-1.021 0-1.452-0.619-1.688-1.287l-0.070 0.007 0.049 0.891c0.475 0.323 1.037 0.494 1.611 0.492z"></path>
            <path fill="#fc9" style="fill: var(--color1, #fc9)"
                  d="M18.132 30.507h0.148v0.236h0.312v0.149h-0.312v0.37c-0.003 0.055 0.009 0.11 0.034 0.159 0.013 0.018 0.031 0.033 0.052 0.042s0.043 0.013 0.066 0.011c0.026 0 0.052-0.004 0.077-0.013 0.020-0.009 0.039-0.020 0.056-0.033l0.049 0.116c-0.062 0.049-0.139 0.075-0.218 0.073-0.039 0.004-0.078-0.002-0.114-0.017s-0.068-0.039-0.092-0.069c-0.046-0.076-0.068-0.164-0.062-0.253l0.004-0.771z"></path>
            <path fill="#fc9" style="fill: var(--color1, #fc9)"
                  d="M19.317 30.271h0.148v0.571c0.035-0.035 0.076-0.062 0.122-0.080 0.047-0.021 0.097-0.032 0.148-0.033 0.095-0.005 0.189 0.027 0.261 0.089 0.034 0.039 0.060 0.085 0.076 0.135s0.022 0.102 0.017 0.154v0.489h-0.148v-0.468c0-0.172-0.079-0.259-0.239-0.259-0.047 0-0.094 0.012-0.137 0.033-0.040 0.018-0.076 0.044-0.105 0.076v0.618h-0.148l0.005-1.325z"></path>
            <path fill="#fc9" style="fill: var(--color1, #fc9)"
                  d="M21.572 31.496c-0.043 0.039-0.093 0.068-0.148 0.085-0.055 0.018-0.113 0.027-0.171 0.027-0.064 0.001-0.127-0.010-0.187-0.031-0.054-0.019-0.103-0.049-0.144-0.089s-0.073-0.088-0.093-0.141c-0.021-0.059-0.032-0.12-0.031-0.183-0-0.059 0.009-0.118 0.028-0.174 0.019-0.052 0.048-0.1 0.086-0.141s0.085-0.073 0.137-0.094c0.060-0.025 0.124-0.037 0.189-0.036 0.051 0 0.101 0.010 0.148 0.028 0.048 0.018 0.091 0.045 0.128 0.080 0.036 0.034 0.064 0.076 0.083 0.122 0.021 0.050 0.032 0.104 0.031 0.159 0 0.034-0.003 0.069-0.009 0.102h-0.656c0.002 0.036 0.011 0.071 0.027 0.104s0.038 0.061 0.066 0.085c0.059 0.046 0.132 0.070 0.206 0.067 0.051 0.001 0.101-0.008 0.148-0.025 0.040-0.015 0.077-0.037 0.11-0.064l0.053 0.119zM21.229 30.866c-0.069-0.004-0.137 0.020-0.189 0.065-0.046 0.042-0.076 0.1-0.082 0.162h0.517c-0-0.031-0.007-0.062-0.019-0.090s-0.030-0.054-0.052-0.076c-0.024-0.021-0.051-0.038-0.082-0.048s-0.062-0.015-0.094-0.013z"></path>
            <path fill="#fc9" style="fill: var(--color1, #fc9)"
                  d="M23.255 30.743h0.148v0.104c0.033-0.036 0.074-0.064 0.119-0.083 0.050-0.024 0.104-0.036 0.159-0.036 0.095-0.006 0.189 0.026 0.261 0.088 0.035 0.039 0.061 0.084 0.077 0.134s0.022 0.101 0.017 0.153v0.493h-0.148v-0.465c0.006-0.071-0.016-0.141-0.061-0.196-0.024-0.023-0.052-0.041-0.083-0.052s-0.064-0.016-0.097-0.013c-0.047 0-0.094 0.012-0.137 0.033-0.039 0.019-0.075 0.045-0.104 0.077v0.617h-0.148l-0.003-0.853z"></path>
            <path fill="#fc9" style="fill: var(--color1, #fc9)"
                  d="M25.51 31.496c-0.043 0.039-0.093 0.068-0.148 0.085-0.055 0.018-0.113 0.027-0.171 0.027-0.064 0.001-0.127-0.010-0.187-0.031-0.054-0.019-0.103-0.049-0.144-0.089s-0.073-0.088-0.093-0.141c-0.040-0.116-0.040-0.241 0-0.357 0.019-0.052 0.048-0.1 0.086-0.141s0.085-0.073 0.137-0.094c0.060-0.025 0.124-0.037 0.189-0.036 0.051 0 0.101 0.010 0.148 0.028 0.048 0.018 0.091 0.045 0.128 0.080 0.036 0.034 0.064 0.076 0.083 0.122 0.021 0.050 0.032 0.104 0.031 0.159 0 0.034-0.003 0.069-0.009 0.102h-0.656c0.002 0.036 0.011 0.071 0.027 0.104s0.038 0.061 0.066 0.085c0.059 0.046 0.132 0.070 0.206 0.067 0.051 0.001 0.101-0.008 0.148-0.025 0.040-0.014 0.076-0.036 0.108-0.064l0.052 0.119zM25.165 30.86c-0.034-0.002-0.068 0.003-0.101 0.014s-0.062 0.029-0.088 0.052c-0.046 0.042-0.076 0.1-0.082 0.162h0.517c-0-0.031-0.007-0.062-0.019-0.090s-0.030-0.054-0.052-0.076c-0.049-0.041-0.112-0.061-0.175-0.055v-0.006z"></path>
            <path fill="#fc9" style="fill: var(--color1, #fc9)"
                  d="M27.18 31.603h-0.132l-0.212-0.553c-0.007-0.018-0.013-0.036-0.019-0.052l-0.013-0.052c-0.008 0.021-0.014 0.040-0.018 0.058s-0.011 0.035-0.018 0.052l-0.206 0.55h-0.126l-0.282-0.86h0.165l0.166 0.538c0 0.022 0.010 0.042 0.015 0.061s0.009 0.039 0.016 0.058c0-0.018 0.012-0.037 0.016-0.055s0.010-0.039 0.019-0.064l0.193-0.538h0.126l0.195 0.536c0 0.019 0.013 0.040 0.021 0.061l0.018 0.061c0.009-0.042 0.021-0.086 0.034-0.129l0.148-0.529h0.148l-0.254 0.857z"></path>
            <path fill="#fc9" style="fill: var(--color1, #fc9)"
                  d="M29.457 31.364c0.001-0.013-0.002-0.027-0.008-0.039s-0.015-0.022-0.026-0.030c-0.026-0.017-0.055-0.031-0.085-0.042-0.036-0.014-0.074-0.026-0.111-0.036-0.039-0.013-0.076-0.029-0.111-0.049-0.033-0.020-0.061-0.047-0.083-0.079-0.025-0.037-0.037-0.082-0.034-0.126-0.002-0.034 0.005-0.067 0.019-0.098s0.035-0.057 0.062-0.078c0.060-0.044 0.133-0.067 0.208-0.064 0.062-0.002 0.123 0.009 0.181 0.031 0.042 0.015 0.080 0.038 0.113 0.068l-0.071 0.114c-0.028-0.024-0.059-0.044-0.093-0.058-0.038-0.016-0.080-0.025-0.122-0.024-0.036-0.002-0.071 0.009-0.099 0.031-0.011 0.009-0.020 0.020-0.026 0.033s-0.009 0.027-0.010 0.041c-0 0.014 0.003 0.027 0.009 0.040s0.015 0.023 0.026 0.032c0.026 0.018 0.055 0.033 0.085 0.045l0.11 0.036c0.039 0.012 0.076 0.028 0.111 0.048 0.034 0.019 0.063 0.045 0.086 0.076 0.024 0.035 0.036 0.078 0.034 0.12 0.001 0.040-0.009 0.079-0.028 0.114-0.018 0.032-0.043 0.059-0.073 0.080-0.032 0.021-0.068 0.037-0.105 0.046-0.041 0.010-0.083 0.015-0.125 0.015-0.034-0-0.068-0.004-0.101-0.012-0.032-0.007-0.063-0.018-0.092-0.031-0.026-0.011-0.051-0.025-0.074-0.042-0.018-0.013-0.034-0.029-0.046-0.047l0.086-0.107c0.014 0.015 0.029 0.029 0.046 0.040 0.020 0.014 0.041 0.026 0.064 0.036s0.045 0.016 0.068 0.022c0.022 0.006 0.044 0.009 0.067 0.009 0.038 0.001 0.075-0.009 0.107-0.028 0.014-0.010 0.026-0.023 0.034-0.039s0.011-0.033 0.011-0.050z"></path>
            <path fill="#fc9" style="fill: var(--color1, #fc9)"
                  d="M30.317 30.507h0.148v0.236h0.312v0.149h-0.312v0.37c-0.004 0.055 0.008 0.11 0.034 0.159 0.013 0.018 0.030 0.033 0.051 0.042s0.043 0.013 0.065 0.011c0.026 0.001 0.053-0.004 0.077-0.013 0.020-0.009 0.039-0.020 0.056-0.033l0.049 0.116c-0.027 0.022-0.058 0.040-0.091 0.052-0.041 0.015-0.084 0.022-0.128 0.021-0.039 0.004-0.078-0.002-0.114-0.017s-0.068-0.039-0.092-0.069c-0.045-0.076-0.066-0.164-0.061-0.253l0.004-0.771z"></path>
            <path fill="#fc9" style="fill: var(--color1, #fc9)"
                  d="M31.444 31.17c-0.001-0.061 0.010-0.121 0.031-0.178 0.022-0.053 0.053-0.101 0.094-0.141 0.042-0.041 0.093-0.072 0.148-0.092 0.12-0.044 0.251-0.044 0.371 0 0.055 0.020 0.106 0.051 0.148 0.092 0.040 0.040 0.071 0.088 0.092 0.141 0.045 0.115 0.045 0.242 0 0.357-0.020 0.053-0.052 0.101-0.092 0.141-0.042 0.041-0.093 0.073-0.148 0.092-0.12 0.044-0.251 0.044-0.371 0-0.056-0.019-0.106-0.051-0.148-0.092-0.041-0.040-0.074-0.088-0.097-0.141-0.020-0.057-0.030-0.118-0.028-0.178zM31.605 31.17c-0 0.041 0.007 0.083 0.021 0.122 0.013 0.036 0.034 0.069 0.059 0.097 0.027 0.027 0.059 0.048 0.095 0.062 0.037 0.015 0.077 0.023 0.117 0.022s0.081-0.007 0.119-0.021c0.035-0.014 0.066-0.035 0.092-0.062s0.047-0.061 0.061-0.097c0.015-0.039 0.023-0.081 0.022-0.123 0.001-0.042-0.007-0.084-0.022-0.123-0.013-0.035-0.034-0.068-0.061-0.095s-0.057-0.048-0.092-0.062c-0.038-0.015-0.078-0.023-0.119-0.022-0.040-0-0.079 0.007-0.116 0.022-0.035 0.014-0.067 0.034-0.093 0.061-0.026 0.028-0.046 0.060-0.061 0.095-0.015 0.040-0.023 0.082-0.022 0.125z"></path>
            <path fill="#fc9" style="fill: var(--color1, #fc9)"
                  d="M33.068 30.743h0.148v0.099c0.022-0.032 0.050-0.059 0.083-0.080 0.039-0.025 0.084-0.037 0.131-0.034 0.028-0.004 0.056-0.004 0.083 0 0.018 0.005 0.034 0.014 0.049 0.025l-0.052 0.148c-0.018-0.011-0.036-0.020-0.056-0.027s-0.039-0.008-0.059-0.007c-0.041-0.002-0.082 0.011-0.114 0.037-0.026 0.024-0.047 0.053-0.064 0.085v0.605h-0.148v-0.851z"></path>
            <path fill="#fc9" style="fill: var(--color1, #fc9)"
                  d="M34.64 31.596c-0.026 0.064-0.055 0.126-0.088 0.186-0.021 0.042-0.047 0.081-0.077 0.117-0.021 0.025-0.047 0.045-0.077 0.058-0.027 0.012-0.055 0.018-0.085 0.018s-0.060-0.005-0.088-0.016c-0.026-0.009-0.050-0.021-0.073-0.037l0.049-0.114 0.044 0.016c0.016 0.007 0.033 0.011 0.051 0.010s0.037-0.004 0.053-0.012c0.017-0.008 0.031-0.020 0.043-0.034 0.036-0.044 0.066-0.095 0.086-0.148l0.018-0.045-0.408-0.853h0.183l0.248 0.542c0.010 0.021 0.019 0.043 0.028 0.065s0.015 0.042 0.024 0.062c0.012-0.040 0.024-0.085 0.040-0.129l0.196-0.541h0.172l-0.34 0.854z"></path>
            <path fill="#fc9" style="fill: var(--color1, #fc9)"
                  d="M36.498 31.17c-0.001-0.061 0.009-0.122 0.031-0.178 0.020-0.053 0.052-0.101 0.092-0.141 0.042-0.041 0.093-0.072 0.148-0.092 0.060-0.023 0.123-0.034 0.187-0.033 0.063-0.001 0.125 0.010 0.184 0.033 0.055 0.020 0.106 0.051 0.148 0.092 0.040 0.040 0.072 0.088 0.093 0.141 0.045 0.115 0.045 0.242 0 0.357-0.022 0.053-0.053 0.101-0.093 0.141-0.042 0.041-0.093 0.073-0.148 0.092-0.059 0.023-0.121 0.034-0.184 0.033-0.064 0.001-0.127-0.010-0.187-0.033-0.056-0.019-0.107-0.051-0.148-0.092-0.040-0.040-0.072-0.088-0.092-0.141-0.022-0.057-0.033-0.117-0.031-0.178zM36.659 31.17c-0 0.041 0.007 0.083 0.021 0.122 0.013 0.036 0.034 0.069 0.061 0.097s0.058 0.049 0.093 0.062c0.038 0.015 0.078 0.023 0.119 0.022s0.080-0.007 0.117-0.021c0.035-0.014 0.067-0.036 0.093-0.062 0.026-0.028 0.046-0.061 0.059-0.097 0.015-0.039 0.023-0.081 0.022-0.123 0.001-0.042-0.007-0.084-0.022-0.123-0.014-0.035-0.034-0.067-0.059-0.095-0.027-0.027-0.059-0.048-0.093-0.062-0.037-0.015-0.077-0.023-0.117-0.022s-0.080 0.007-0.117 0.022c-0.035 0.013-0.066 0.034-0.092 0.061-0.027 0.027-0.048 0.060-0.062 0.095-0.015 0.040-0.023 0.082-0.022 0.125z"></path>
            <path fill="#fc9" style="fill: var(--color1, #fc9)"
                  d="M38.139 30.605c-0.007-0.095 0.021-0.19 0.079-0.266 0.028-0.030 0.062-0.054 0.101-0.069s0.079-0.022 0.121-0.020c0.046-0.001 0.092 0.007 0.135 0.022 0.034 0.011 0.065 0.030 0.091 0.055l-0.052 0.116c-0.019-0.016-0.040-0.028-0.064-0.036-0.027-0.011-0.057-0.016-0.086-0.015-0.024-0.002-0.048 0.002-0.070 0.012s-0.041 0.024-0.056 0.043c-0.035 0.051-0.051 0.113-0.046 0.175v0.12h0.285v0.149h-0.285v0.71h-0.148l-0.003-0.997z"></path>
            <path fill="#fc9" style="fill: var(--color1, #fc9)"
                  d="M47.539 30.271h0.148v0.554c0.034-0.031 0.072-0.055 0.114-0.071 0.047-0.020 0.097-0.030 0.148-0.030 0.059-0.001 0.118 0.010 0.172 0.033 0.048 0.020 0.091 0.050 0.126 0.088 0.035 0.040 0.062 0.087 0.080 0.137 0.018 0.056 0.027 0.115 0.027 0.174 0.001 0.065-0.011 0.13-0.034 0.19-0.020 0.056-0.053 0.107-0.095 0.149s-0.093 0.072-0.148 0.092c-0.063 0.022-0.129 0.032-0.196 0.031-0.066 0-0.131-0.009-0.195-0.027-0.053-0.015-0.103-0.039-0.148-0.071v-1.248zM47.92 30.865c-0.048-0-0.095 0.012-0.137 0.036-0.035 0.019-0.066 0.044-0.094 0.073v0.438c0.031 0.021 0.064 0.037 0.099 0.048 0.035 0.008 0.070 0.012 0.105 0.012 0.041 0 0.082-0.007 0.12-0.021 0.035-0.014 0.067-0.034 0.095-0.059 0.028-0.027 0.051-0.060 0.065-0.097 0.017-0.040 0.025-0.084 0.024-0.128 0.005-0.081-0.022-0.162-0.076-0.223-0.027-0.026-0.059-0.046-0.094-0.060s-0.072-0.019-0.11-0.018v-0.001z"></path>
            <path fill="#fc9" style="fill: var(--color1, #fc9)"
                  d="M49.081 30.801c0.040-0.024 0.084-0.043 0.129-0.055 0.048-0.014 0.098-0.021 0.148-0.021 0.047-0.005 0.094 0 0.138 0.016s0.084 0.041 0.117 0.075c0.053 0.075 0.079 0.165 0.073 0.257v0.523h-0.148v-0.11c-0.028 0.035-0.063 0.064-0.102 0.085-0.052 0.027-0.111 0.040-0.169 0.037-0.070 0.003-0.139-0.021-0.191-0.068-0.025-0.025-0.044-0.056-0.056-0.089s-0.018-0.069-0.015-0.104c-0-0.040 0.008-0.080 0.025-0.116 0.016-0.033 0.039-0.062 0.068-0.085 0.030-0.024 0.064-0.042 0.101-0.052 0.042-0.012 0.084-0.018 0.128-0.018 0.036-0 0.073 0.003 0.108 0.010 0.038 0.006 0.073 0.021 0.104 0.043 0.001-0.036-0.002-0.073-0.007-0.108-0.002-0.030-0.011-0.059-0.025-0.085-0.013-0.024-0.034-0.044-0.059-0.056-0.032-0.014-0.066-0.021-0.101-0.019-0.044-0.001-0.088 0.005-0.131 0.018-0.035 0.013-0.070 0.027-0.104 0.044l-0.030-0.122zM49.329 31.473c0.047 0.002 0.094-0.011 0.134-0.036 0.031-0.021 0.059-0.046 0.085-0.074v-0.108c-0.056-0.038-0.122-0.058-0.19-0.056-0.023 0-0.046 0.003-0.068 0.009-0.021 0.005-0.041 0.014-0.059 0.025-0.017 0.012-0.031 0.027-0.042 0.045-0.009 0.019-0.014 0.040-0.013 0.061-0.001 0.018 0.002 0.037 0.009 0.053s0.017 0.032 0.031 0.044c0.032 0.027 0.073 0.040 0.114 0.037z"></path>
            <path fill="#fc9" style="fill: var(--color1, #fc9)"
                  d="M50.325 31.718c-0.001-0.032 0.005-0.063 0.018-0.092s0.032-0.055 0.056-0.076c0.058-0.046 0.126-0.077 0.199-0.091-0.007-0.010-0.013-0.021-0.016-0.033-0.001-0.012-0.001-0.025 0-0.037-0.001-0.026 0.007-0.051 0.022-0.071-0.057-0.023-0.106-0.062-0.141-0.113-0.033-0.050-0.050-0.108-0.049-0.168-0-0.042 0.008-0.083 0.024-0.122s0.040-0.072 0.070-0.099c0.032-0.029 0.069-0.052 0.11-0.067 0.048-0.017 0.098-0.025 0.148-0.024 0.039-0.001 0.078 0.005 0.116 0.015 0.036 0.010 0.069 0.026 0.099 0.048l0.249-0.061v0.122l-0.16 0.040c0.023 0.041 0.036 0.086 0.039 0.133s-0.006 0.093-0.026 0.136c-0.016 0.037-0.039 0.070-0.070 0.097-0.031 0.029-0.068 0.052-0.108 0.067-0.048 0.016-0.098 0.023-0.148 0.022h-0.058c-0.003 0.008-0.006 0.016-0.007 0.024v0.024c-0.001 0.020 0.005 0.040 0.016 0.056h0.052c0.057-0 0.115 0.006 0.171 0.018 0.048 0.009 0.094 0.026 0.137 0.050 0.036 0.021 0.068 0.050 0.091 0.085 0.022 0.036 0.034 0.078 0.034 0.12s-0.012 0.084-0.034 0.12c-0.023 0.035-0.054 0.064-0.091 0.083-0.042 0.025-0.088 0.042-0.137 0.051-0.056 0.012-0.113 0.018-0.171 0.018s-0.115-0.005-0.172-0.016c-0.049-0.009-0.096-0.026-0.14-0.051-0.036-0.020-0.068-0.049-0.091-0.083-0.023-0.037-0.035-0.081-0.033-0.125zM50.474 31.718c0 0.024 0.008 0.048 0.023 0.068s0.034 0.034 0.057 0.042c0.136 0.052 0.287 0.052 0.423 0 0.023-0.008 0.042-0.023 0.056-0.043s0.022-0.043 0.022-0.067c-0-0.024-0.008-0.048-0.022-0.067s-0.033-0.035-0.056-0.044c-0.067-0.028-0.139-0.042-0.212-0.039-0.074-0.003-0.147 0.010-0.215 0.039-0.022 0.009-0.042 0.024-0.056 0.044s-0.021 0.043-0.022 0.067zM50.557 31.037c-0.001 0.025 0.004 0.049 0.013 0.072s0.024 0.043 0.042 0.060c0.041 0.035 0.094 0.053 0.148 0.051 0.054 0.003 0.107-0.015 0.148-0.049 0.019-0.016 0.035-0.037 0.045-0.060s0.015-0.048 0.014-0.074c0.001-0.025-0.004-0.050-0.014-0.073s-0.024-0.044-0.042-0.061c-0.020-0.019-0.043-0.034-0.068-0.044s-0.053-0.014-0.080-0.013c-0.027-0.001-0.054 0.003-0.080 0.013s-0.049 0.024-0.069 0.043c-0.020 0.016-0.036 0.037-0.047 0.060s-0.017 0.048-0.018 0.074h0.007z"></path>
            <path fill="#fc9" style="fill: var(--color1, #fc9)"
                  d="M40.153 32c0.701 0 1.309-1.093 1.309-1.322 0-0.022-0.010-0.031-0.034-0.031-0.027 0-0.054 0.009-0.076 0.026s-0.039 0.039-0.047 0.065c-0.016 0.104-0.020 0.21-0.012 0.315-0.137 0.245-0.314 0.467-0.523 0.655 0.1-0.287 0.157-0.587 0.166-0.891 0-0.095-0.018-0.169-0.094-0.169s-0.148 0.077-0.267 0.178l0.013 0.019c0.047-0.052 0.109-0.088 0.178-0.101 0.047 0 0.059 0.061 0.059 0.149-0.012 0.287-0.068 0.57-0.166 0.839-0.017 0.040-0.042 0.077-0.074 0.107s-0.070 0.053-0.111 0.067c-0.088-0.025-0.178-0.042-0.269-0.051-0.074 0-0.117 0.088-0.117 0.114s0.018 0.031 0.064 0.031z"></path>
            <path fill="#fc9" style="fill: var(--color1, #fc9)"
                  d="M42.188 31.62c0.316 0 0.655-0.446 0.655-0.759 0.003-0.028-0-0.056-0.009-0.082s-0.023-0.050-0.042-0.071c-0.019-0.020-0.042-0.036-0.068-0.047s-0.053-0.016-0.081-0.015c-0.33 0-0.665 0.468-0.665 0.743-0.005 0.030-0.003 0.060 0.006 0.089s0.024 0.055 0.044 0.077 0.045 0.039 0.073 0.051c0.028 0.011 0.058 0.016 0.088 0.013zM42.096 31.342c0-0.205 0.181-0.634 0.445-0.634 0.116 0 0.187 0.074 0.187 0.209 0 0.199-0.18 0.643-0.445 0.643-0.114 0-0.187-0.064-0.187-0.212v-0.006z"></path>
            <path fill="#fc9" style="fill: var(--color1, #fc9)"
                  d="M44.090 31.62c0.114-0.030 0.217-0.092 0.297-0.178l-0.013-0.018c-0.092 0.082-0.148 0.107-0.186 0.107-0.007 0-0.015-0.001-0.022-0.003s-0.013-0.007-0.018-0.012c-0.005-0.005-0.009-0.012-0.011-0.019s-0.003-0.015-0.002-0.022c0.023-0.127 0.070-0.248 0.138-0.358 0.086-0.149 0.175-0.297 0.246-0.415 0.009-0.013 0-0.022-0.010-0.022h-0.073c-0.004-0-0.009 0.001-0.012 0.003s-0.007 0.005-0.010 0.008l-0.099 0.148c-0.119 0.171-0.252 0.333-0.396 0.484-0.131 0.134-0.232 0.217-0.307 0.217-0.009 0.001-0.018 0-0.027-0.003s-0.017-0.008-0.023-0.014-0.011-0.014-0.014-0.023c-0.003-0.009-0.004-0.018-0.003-0.027 0-0.122 0.347-0.573 0.347-0.732 0.001-0.013-0.001-0.026-0.005-0.037s-0.011-0.023-0.020-0.032c-0.009-0.009-0.020-0.016-0.031-0.021s-0.025-0.007-0.037-0.006c-0.113 0.033-0.215 0.094-0.297 0.178l0.013 0.019c0.092-0.082 0.148-0.106 0.187-0.106s0.050 0.018 0.050 0.053c0 0.157-0.333 0.557-0.333 0.713-0.001 0.015 0.002 0.031 0.008 0.045s0.014 0.027 0.025 0.038c0.011 0.011 0.024 0.019 0.039 0.024s0.030 0.008 0.045 0.006c0.094 0 0.233-0.107 0.39-0.276 0.089-0.095 0.183-0.204 0.276-0.322-0.099 0.151-0.168 0.321-0.2 0.499 0.003 0.045 0.019 0.102 0.088 0.102z"></path>
            <path fill="#fc9" style="fill: var(--color1, #fc9)"
                  d="M45.006 31.606h0.071c0.004 0 0.009-0.001 0.013-0.003s0.007-0.005 0.010-0.009c0.027-0.042 0.117-0.205 0.206-0.38 0.086-0.181 0.214-0.338 0.373-0.46 0.073 0.025 0.15 0.038 0.227 0.039 0.030-0.003 0.059-0.015 0.082-0.035s0.040-0.046 0.047-0.075c0-0.025-0.040-0.033-0.089-0.033-0.245 0-0.41 0.165-0.537 0.36 0.045-0.082 0.078-0.17 0.096-0.261 0.001-0.012-0-0.025-0.005-0.037s-0.010-0.023-0.019-0.032-0.019-0.017-0.030-0.022c-0.011-0.005-0.024-0.008-0.036-0.008-0.113 0.032-0.215 0.094-0.297 0.178l0.013 0.019c0.092-0.082 0.148-0.108 0.192-0.108 0.007-0 0.014 0.001 0.020 0.004s0.012 0.007 0.017 0.012c0.005 0.005 0.008 0.011 0.011 0.018s0.003 0.014 0.002 0.020c0 0.119-0.269 0.594-0.38 0.795-0.006 0.010-0.001 0.019 0.012 0.019z"></path>
            <path fill="#fc9" style="fill: var(--color1, #fc9)"
                  d="M34.678 16.861c-1.666 0-3.295-0.494-4.681-1.421s-2.465-2.243-3.103-3.784-0.804-3.236-0.479-4.872c0.325-1.636 1.128-3.138 2.306-4.317s2.68-1.982 4.314-2.307 3.328-0.158 4.868 0.48c1.539 0.638 2.855 1.719 3.781 3.106s1.419 3.017 1.419 4.685c-0.002 2.235-0.891 4.378-2.47 5.959s-3.721 2.469-5.954 2.471zM34.678 0.42c-1.583 0-3.131 0.47-4.447 1.35s-2.342 2.131-2.948 3.595-0.764 3.074-0.456 4.628c0.309 1.554 1.071 2.981 2.191 4.102s2.546 1.883 4.098 2.192c1.553 0.309 3.162 0.15 4.625-0.456s2.713-1.633 3.592-2.95c0.88-1.317 1.349-2.866 1.349-4.451-0.003-2.124-0.847-4.159-2.348-5.661s-3.535-2.347-5.657-2.35z"></path>
            <path fill="#fc9" style="fill: var(--color1, #fc9)"
                  d="M39.052 8.495l-0.134-0.065c-0.137-0.064-0.283-0.126-0.445-0.19-0.12-0.049-0.243-0.1-0.364-0.149l-0.12-0.055c-0.134-0.061-0.263-0.133-0.386-0.214l-0.068-0.049c0.019-0.021 0.096-0.113 0.113-0.134 0.127-0.179 0.18-0.4 0.148-0.617-0.025-0.133-0.079-0.259-0.157-0.369s-0.18-0.202-0.297-0.269c0.112-0.112 0.246-0.199 0.393-0.257s0.305-0.085 0.463-0.079c0.865 0 1.248 0.422 1.484 0.869 0.016 0.030 0.031 0.059 0.045 0.091l0.058-0.027-0.028-0.701c-0.334-0.203-0.713-0.318-1.103-0.337-0.086 0-0.177-0.010-0.272-0.010-0.113-0-0.226 0.007-0.339 0.022-0.303 0.034-0.591 0.152-0.831 0.34-0.009 0.009-0.019 0.015-0.027 0.022-0.088-0.024-0.179-0.037-0.27-0.039-0.072 0.001-0.143 0.007-0.214 0.018-0.2 0.026-0.385 0.122-0.523 0.27-0.055 0.062-0.097 0.135-0.123 0.214s-0.034 0.163-0.026 0.245c0.002 0.044 0.013 0.087 0.031 0.127s0.045 0.076 0.078 0.105 0.071 0.052 0.113 0.067c0.042 0.014 0.086 0.020 0.13 0.018 0.081-0.007 0.155-0.045 0.209-0.106s0.081-0.14 0.077-0.221c-0.009-0.077-0.036-0.151-0.080-0.215-0.044-0.057-0.077-0.121-0.096-0.19-0.003-0.030 0-0.060 0.009-0.089s0.024-0.056 0.043-0.079c0.037-0.027 0.080-0.046 0.125-0.055 0.059-0.018 0.121-0.026 0.183-0.025 0.275 0 0.576 0.279 0.61 0.627 0.011 0.118-0.004 0.238-0.044 0.35s-0.106 0.213-0.19 0.297c-0.080 0.088-0.171 0.166-0.272 0.23-0.378 0.232-0.776 0.43-1.188 0.594-0.594 0.196-0.928 0.489-0.891 0.865 0.005 0.104 0.050 0.203 0.125 0.276s0.175 0.114 0.28 0.115c0.038-0.002 0.076-0.012 0.11-0.029s0.065-0.041 0.089-0.071 0.043-0.064 0.053-0.1c0.011-0.037 0.014-0.075 0.009-0.113-0.021-0.218-0.212-0.244-0.233-0.469-0.019-0.195 0.245-0.345 0.491-0.345 0.184 0.010 0.357 0.088 0.487 0.218s0.206 0.305 0.215 0.489c0.071 0.759-0.705 1.435-1.556 1.435-0.742 0-1.544-0.511-1.553-1.214-0.005-0.2 0.029-0.399 0.101-0.586s0.18-0.357 0.318-0.502 0.303-0.261 0.486-0.342c0.183-0.081 0.38-0.124 0.58-0.129 0.093 0 0.177 0.030 0.248 0.030s0.11-0.053 0.102-0.135c-0.002-0.030-0.015-0.059-0.037-0.080s-0.051-0.033-0.082-0.033c-0.065 0-0.12 0.022-0.163 0.022-0.2-0.011-0.389-0.091-0.536-0.227s-0.243-0.318-0.27-0.516c-0.061-0.639 0.514-0.948 0.91-0.948 0.23 0 0.506 0.126 0.524 0.269 0.028 0.214-0.159 0.226-0.241 0.33-0.041 0.053-0.064 0.117-0.067 0.184-0.002 0.031 0.002 0.061 0.013 0.090s0.027 0.055 0.049 0.077c0.021 0.022 0.047 0.039 0.076 0.050s0.059 0.016 0.090 0.015c0.187 0 0.334-0.196 0.307-0.474-0.025-0.373-0.304-0.67-0.86-0.67-0.714 0-1.226 0.446-1.165 1.082 0.039 0.415 0.404 0.759 1.048 0.789v0.024c-0.272-0.002-0.541 0.056-0.789 0.167s-0.469 0.276-0.648 0.48v-1.603c0-0.64 0.083-0.758 0.278-0.807v-0.076h-0.944v0.076c0.195 0.049 0.278 0.166 0.278 0.807v1.355h-2.884v-1.355c0-0.64 0.083-0.758 0.278-0.807v-0.076h-0.944v0.076c0.194 0.049 0.278 0.166 0.278 0.807v3.099c0 0.639-0.083 0.756-0.278 0.805v0.076h0.944v-0.076c-0.194-0.049-0.278-0.166-0.278-0.805v-1.648h2.887v0.989c0 0.085 0 0.193 0 0.31 0 0.031 0 0.085 0.007 0.108 0.004 0.040 0.011 0.079 0.021 0.117 0.018 0.104 0.053 0.204 0.102 0.297 0.054 0.103 0.124 0.196 0.209 0.275 0.093 0.093 0.2 0.17 0.318 0.229 0.025 0.013 0.051 0.024 0.076 0.034 0.314 0.149 0.658 0.223 1.005 0.217 0.471 0.020 0.934-0.118 1.317-0.394 0.098-0.076 0.216-0.123 0.34-0.133s0.248 0.015 0.358 0.074c0.006 0.006 0.013 0.011 0.021 0.015 0.095 0.062 0.194 0.118 0.297 0.166 0.058 0.028 0.119 0.055 0.184 0.080 0.342 0.136 0.707 0.206 1.075 0.207 0.351 0.004 0.695-0.094 0.992-0.282 0.078-0.050 0.151-0.108 0.217-0.172 0.116-0.11 0.208-0.241 0.271-0.388s0.096-0.304 0.096-0.463c0.003-0.557-0.337-0.854-0.855-1.125zM38.431 10.817c-0.837 0-1.277-0.416-1.538-0.933-0.033-0.065-0.062-0.135-0.091-0.205l-0.013-0.033c-0.086-0.217-0.168-0.446-0.272-0.688-0.067-0.132-0.168-0.243-0.294-0.322s-0.27-0.121-0.418-0.124c0.444-0.155 0.88-0.333 1.306-0.533l0.019 0.018 0.015 0.013c0.302 0.243 0.644 0.432 1.011 0.556l0.238 0.095c0.567 0.235 1.179 0.563 1.179 1.189 0.003 0.55-0.512 0.967-1.143 0.967z"></path>
        </symbol>
    </defs>
</svg>
