<svg width="155" height="154" viewBox="0 0 155 154" fill="none" xmlns="http://www.w3.org/2000/svg">
<path d="M77.439 153.856C62.2341 153.856 47.3706 149.344 34.7283 140.889C22.0861 132.435 12.2329 120.419 6.41481 106.36C0.596752 92.301 -0.924845 76.8313 2.04248 61.907C5.0098 46.9827 12.3327 33.2743 23.0852 22.5153C33.8377 11.7563 47.5367 4.43001 62.4498 1.46299C77.3629 -1.50403 92.8203 0.0214756 106.867 5.84657C120.914 11.6717 132.919 21.5347 141.365 34.1884C149.81 46.842 154.316 61.7179 154.314 76.9348C154.292 97.3313 146.185 116.886 131.773 131.307C117.36 145.729 97.8196 153.838 77.439 153.856ZM77.439 3.8365C62.9929 3.8365 48.8711 8.12363 36.8596 16.1558C24.848 24.1879 15.4862 35.6043 9.95785 48.9613C4.42955 62.3182 2.98311 77.0159 5.80141 91.1955C8.61972 105.375 15.5762 118.4 25.7912 128.623C36.0062 138.846 49.0208 145.808 63.1894 148.628C77.358 151.449 92.0441 150.001 105.391 144.469C118.737 138.936 130.145 129.567 138.17 117.546C146.196 105.525 150.48 91.3923 150.48 76.9348C150.451 57.5567 142.747 38.9805 129.055 25.2782C115.364 11.5758 96.8019 3.86518 77.439 3.8365Z" fill="#FFCC99"/>
<path d="M117.346 77.5175L116.127 76.921C114.881 76.3381 113.54 75.7687 112.063 75.1858C110.966 74.7384 109.842 74.2775 108.744 73.8301L107.647 73.3285C106.425 72.7679 105.248 72.1153 104.125 71.3763L103.502 70.9289C103.678 70.7391 104.382 69.8986 104.531 69.7088C105.686 68.0763 106.171 66.0625 105.886 64.0827C105.657 62.8707 105.168 61.7228 104.453 60.7186C103.737 59.7145 102.812 58.8779 101.741 58.2669C102.764 57.2469 103.986 56.4485 105.331 55.9214C106.675 55.3943 108.114 55.1498 109.557 55.203C117.455 55.203 120.949 59.0532 123.103 63.1338C123.252 63.4049 123.388 63.676 123.51 63.9607L124.038 63.7167L123.781 57.3179C120.734 55.4697 117.274 54.412 113.716 54.2405C112.93 54.2405 112.104 54.1456 111.237 54.1456C110.204 54.1427 109.172 54.2106 108.148 54.349C105.382 54.6629 102.756 55.7375 100.562 57.4535C100.481 57.5348 100.386 57.589 100.319 57.6568C99.5152 57.4344 98.6866 57.3159 97.8532 57.3043C97.1998 57.3103 96.5478 57.3646 95.9025 57.467C94.0729 57.7037 92.385 58.5772 91.1343 59.9344C90.6283 60.499 90.2463 61.1635 90.013 61.8851C89.7797 62.6067 89.7002 63.3692 89.7796 64.1234C89.7969 64.5254 89.8941 64.9198 90.0656 65.2837C90.2371 65.6476 90.4794 65.9736 90.7784 66.2425C91.0774 66.5114 91.4271 66.7179 91.8068 66.8499C92.1866 66.9819 92.5889 67.0366 92.9901 67.011C93.7255 66.9487 94.4079 66.6027 94.8932 66.0462C95.3785 65.4897 95.6287 64.7662 95.591 64.0285C95.5104 63.3235 95.2593 62.6488 94.8595 62.0628C94.4579 61.5459 94.159 60.9569 93.979 60.3275C93.9517 60.0534 93.9796 59.7766 94.061 59.5135C94.1424 59.2504 94.2758 59.0063 94.4531 58.7956C94.7914 58.5476 95.1797 58.3764 95.591 58.294C96.131 58.1308 96.6931 58.0531 97.2571 58.0635C99.7632 58.0635 102.513 60.6122 102.825 63.7845C102.928 64.8648 102.789 65.9546 102.419 66.9747C102.049 67.9948 101.456 68.9195 100.684 69.6817C99.9547 70.489 99.1211 71.1956 98.2054 71.783C94.7538 73.8959 91.1283 75.71 87.3684 77.2057C81.9499 78.9952 78.902 81.6659 79.2407 85.0958C79.2888 86.0492 79.6979 86.9484 80.3849 87.6107C81.0718 88.273 81.985 88.6487 82.9388 88.6612C83.288 88.6436 83.6298 88.5538 83.9426 88.3975C84.2554 88.2413 84.5325 88.0219 84.7564 87.7532C84.9804 87.4845 85.1463 87.1723 85.2438 86.8363C85.3413 86.5003 85.3683 86.1477 85.3229 85.8007C85.1333 83.8079 83.3858 83.5774 83.1962 81.5168C83.0201 79.7408 85.4313 78.3716 87.68 78.3716C89.3574 78.4606 90.942 79.1702 92.126 80.3626C93.31 81.5551 94.009 83.1454 94.0873 84.8246C94.7375 91.7522 87.6529 97.9205 79.8909 97.9205C73.1178 97.9205 65.8029 93.257 65.7216 86.8446C65.673 85.0194 65.9854 83.2026 66.6407 81.4986C67.2961 79.7946 68.2815 78.2371 69.5403 76.9155C70.7992 75.5939 72.3066 74.5344 73.976 73.7978C75.6454 73.0613 77.4438 72.6622 79.2678 72.6235C80.1212 72.6235 80.8798 72.8947 81.53 72.8947C82.1802 72.8947 82.5324 72.4066 82.4647 71.661C82.4476 71.384 82.3263 71.1237 82.1253 70.9326C81.9242 70.7414 81.6583 70.6336 81.381 70.6307C80.785 70.6307 80.2838 70.834 79.8909 70.834C78.0692 70.7346 76.3388 70.0038 74.9966 68.767C73.6545 67.5302 72.7843 65.8644 72.5353 64.0556C71.9799 58.2262 77.2223 55.4064 80.8392 55.4064C82.9388 55.4064 85.4584 56.5587 85.621 57.8602C85.8783 59.8123 84.1715 59.9208 83.4265 60.8698C83.0539 61.3532 82.8409 61.9407 82.8169 62.5508C82.7974 62.8301 82.8373 63.1103 82.934 63.3731C83.0307 63.6358 83.182 63.8749 83.3778 64.0748C83.5737 64.2747 83.8097 64.4307 84.0703 64.5326C84.3309 64.6344 84.6101 64.6798 84.8895 64.6657C86.5963 64.6657 87.9374 62.8762 87.6935 60.3411C87.4632 56.9383 84.9166 54.2269 79.8503 54.2269C73.3346 54.2269 68.6611 58.294 69.2165 64.0963C69.5687 67.8786 72.9011 71.0238 78.7801 71.295V71.5119C76.2987 71.4982 73.8434 72.019 71.5809 73.0389C69.3184 74.0587 67.3016 75.5538 65.6674 77.4226V76.433V62.7948C65.6674 56.9519 66.426 55.8809 68.2006 55.4335V54.7421H59.5852V55.4335C61.3597 55.8809 62.1183 56.9519 62.1183 62.7948V75.1586H35.7981V62.7948C35.7981 56.9519 36.5566 55.8809 38.3312 55.4335V54.7421H29.7158V55.4335C31.4904 55.8809 32.249 56.9519 32.249 62.7948V91.0743C32.249 96.9038 31.4904 97.9747 29.7158 98.4221V99.1135H38.3312V98.4221C36.5566 97.9747 35.7981 96.9038 35.7981 91.0743V76.0398H62.1454V85.0687C62.1454 85.8414 62.1454 86.8311 62.1454 87.902C62.1454 88.1867 62.1454 88.6748 62.2131 88.8917C62.2512 89.2527 62.3146 89.6106 62.4028 89.9627C62.5687 90.9104 62.8842 91.8256 63.3375 92.674C63.8264 93.613 64.4724 94.4613 65.2475 95.182C66.0978 96.0265 67.0762 96.7311 68.1464 97.2698C68.3767 97.3918 68.6069 97.4867 68.8372 97.5816C71.7001 98.9421 74.8393 99.6196 78.008 99.5609C82.3024 99.7455 86.5341 98.4803 90.0235 95.9683C90.9187 95.2717 91.9966 94.8497 93.1266 94.7534C94.2565 94.6572 95.3902 94.8908 96.3902 95.4261C96.4477 95.4788 96.5114 95.5243 96.5798 95.5616C97.4483 96.1273 98.3534 96.6345 99.2891 97.08C99.8174 97.3376 100.373 97.5816 100.969 97.8121C104.089 99.0554 107.417 99.6948 110.776 99.6965C113.978 99.7295 117.12 98.8349 119.825 97.1207C120.536 96.6649 121.199 96.138 121.803 95.5481C122.859 94.549 123.7 93.3448 124.276 92.0091C124.851 90.6735 125.148 89.2345 125.149 87.78C125.176 82.6962 122.074 79.9849 117.346 77.5175ZM111.684 98.7068C104.044 98.7068 100.034 94.9109 97.65 90.1931C97.352 89.5966 97.081 88.9595 96.8237 88.3223L96.7018 88.0241C95.9161 86.0448 95.171 83.957 94.2228 81.7473C93.6137 80.5424 92.6875 79.5268 91.544 78.8101C90.4005 78.0933 89.0832 77.7027 87.7342 77.6802C91.7882 76.2629 95.767 74.6384 99.6548 72.8133L99.8309 72.976L99.9664 73.098C102.718 75.32 105.841 77.0366 109.191 78.1683L111.359 79.0359C116.533 81.1779 122.114 84.1739 122.114 89.8813C122.141 94.8974 117.441 98.7068 111.684 98.7068Z" fill="#FFCC99"/>
</svg>
